<?xml version="1.0" standalone="no"?>
<!DOCTYPE svg PUBLIC "-//W3C//DTD SVG 20010904//EN"
 "http://www.w3.org/TR/2001/REC-SVG-20010904/DTD/svg10.dtd">
<svg version="1.0" xmlns="http://www.w3.org/2000/svg"
 width="900.000000pt" height="924.000000pt" viewBox="0 0 900.000000 924.000000"
 preserveAspectRatio="xMidYMid meet">
<metadata>
Created by potrace 1.10, written by Peter Selinger 2001-2011
</metadata>
<g transform="translate(0.000000,924.000000) scale(0.100000,-0.100000)"
fill="#030303" stroke="none">
<path d="M4644 8803 c-40 -5 -120 -74 -215 -183 -104 -119 -250 -248 -309
-273 -8 -4 -42 -24 -75 -44 -61 -38 -226 -119 -300 -146 -22 -8 -64 -25 -93
-36 -61 -25 -195 -65 -267 -79 -27 -6 -84 -19 -125 -30 -41 -11 -120 -27 -175
-37 -55 -9 -138 -23 -184 -30 -45 -8 -87 -13 -91 -10 -4 3 -21 1 -36 -5 -16
-5 -65 -12 -109 -15 -44 -3 -98 -8 -120 -9 -22 -2 -96 -6 -165 -9 -392 -18
-472 -37 -541 -128 -47 -62 -56 -91 -63 -204 -8 -125 -10 -2197 -3 -3340 5
-814 4 -792 57 -948 33 -96 30 -108 -49 -166 -38 -28 -73 -51 -79 -51 -6 0
-40 20 -76 44 -97 67 -140 86 -192 86 -39 0 -54 -6 -91 -36 -24 -20 -53 -54
-64 -76 -28 -54 -27 -142 0 -194 27 -50 28 -115 2 -138 -30 -27 -50 -96 -42
-143 10 -54 44 -121 86 -170 19 -23 35 -49 35 -59 0 -9 -13 -41 -30 -71 -34
-59 -36 -80 -15 -139 27 -78 60 -129 132 -205 77 -81 81 -90 62 -163 -10 -40
-8 -50 22 -117 44 -101 105 -176 206 -250 l85 -63 -7 -52 c-7 -59 6 -98 60
-180 55 -82 201 -204 245 -204 27 0 57 -42 64 -89 15 -98 110 -212 226 -269
14 -6 32 -16 40 -21 15 -9 67 -24 124 -36 30 -6 55 -30 140 -130 40 -47 65
-65 135 -98 102 -47 111 -49 266 -51 130 -1 140 -4 215 -66 61 -51 74 -56 171
-74 147 -27 270 -11 379 48 90 49 144 100 196 186 27 44 57 83 67 86 9 3 17 9
17 14 0 5 18 14 39 20 53 14 145 112 135 144 -9 28 -63 94 -83 101 -9 3 -29
17 -46 32 -26 23 -30 34 -36 104 -5 60 -15 93 -43 150 -20 39 -36 73 -36 74 0
12 92 -25 221 -88 231 -114 279 -131 374 -132 55 0 94 6 125 18 25 10 59 24
75 30 17 7 77 36 135 65 177 90 233 107 211 64 -29 -58 -42 -101 -47 -155 -7
-82 -18 -108 -57 -137 -67 -52 -117 -108 -117 -130 0 -40 56 -96 134 -135 69
-34 75 -40 112 -107 54 -99 121 -163 222 -210 108 -51 175 -61 307 -48 119 12
168 30 240 87 28 22 59 44 70 50 18 9 163 18 250 15 29 -1 104 21 175 51 32
14 73 52 187 173 28 30 54 46 98 59 134 40 244 114 316 211 30 42 39 62 39 94
0 59 13 76 83 111 113 57 191 127 249 222 43 72 54 123 35 174 -9 25 10 47 88
98 76 49 139 122 181 204 35 72 36 77 31 157 l-5 82 60 58 c59 59 133 170 154
231 15 43 3 105 -29 149 -31 45 -25 75 31 142 47 58 72 118 72 178 0 35 -8 56
-35 97 -19 28 -35 58 -35 65 0 7 9 38 20 70 36 99 40 130 24 182 -18 60 -95
134 -149 143 -50 8 -124 -20 -198 -74 -98 -73 -100 -72 -193 21 -39 39 -39 40
-5 160 78 277 81 377 82 2542 1 1688 0 1785 -17 1828 -36 92 -133 180 -221
201 -27 7 -133 13 -238 15 -211 3 -408 18 -530 39 -44 7 -109 16 -145 20 -194
19 -587 116 -840 208 -111 40 -256 109 -270 127 -3 3 -13 9 -23 13 -27 10
-155 96 -164 110 -4 7 -21 21 -37 31 -28 18 -54 44 -236 231 -120 125 -168
150 -256 138z m82 -112 c17 -11 53 -48 80 -83 73 -95 93 -117 161 -185 56 -56
214 -183 227 -183 2 0 27 -15 55 -34 28 -18 91 -53 139 -76 48 -24 99 -49 114
-56 14 -8 34 -14 45 -14 10 0 27 -7 37 -15 11 -8 28 -15 37 -15 10 0 30 -6 46
-14 15 -8 51 -21 78 -29 236 -68 340 -95 420 -107 28 -5 63 -13 78 -19 16 -6
45 -11 65 -11 20 0 59 -7 86 -15 27 -8 70 -15 95 -15 25 0 64 -5 86 -11 22 -5
99 -14 170 -19 72 -6 182 -14 245 -19 63 -6 183 -10 266 -10 l152 -1 51 -50
50 -49 -4 -1628 c-5 -1922 -11 -2377 -31 -2483 -8 -41 -14 -88 -14 -104 0 -72
-98 -319 -195 -491 -19 -33 -37 -67 -41 -75 -19 -37 -205 -295 -224 -310 -4
-3 -40 -43 -81 -90 -94 -108 -279 -294 -389 -390 -47 -40 -90 -79 -96 -84 -79
-76 -497 -395 -592 -451 -9 -5 -33 -22 -53 -37 -20 -16 -40 -28 -43 -28 -3 0
-34 -19 -69 -43 -34 -24 -69 -46 -77 -50 -8 -4 -28 -16 -45 -27 -16 -11 -39
-24 -50 -30 -11 -6 -47 -26 -80 -45 -33 -19 -82 -47 -110 -61 -27 -14 -77 -41
-110 -59 -58 -32 -304 -156 -335 -169 -8 -3 -22 -10 -30 -14 -42 -24 -67 -35
-109 -48 -39 -11 -53 -11 -92 0 -25 8 -55 19 -65 24 -11 5 -35 17 -54 25 -46
20 -170 82 -245 123 -33 18 -73 40 -90 48 -16 8 -52 29 -80 45 -27 17 -59 35
-70 41 -11 6 -29 16 -40 23 -61 36 -240 144 -260 157 -54 35 -161 102 -180
113 -11 7 -22 14 -25 17 -14 14 -70 50 -79 50 -5 0 -11 3 -13 8 -3 7 -30 27
-138 101 -36 24 -67 47 -70 50 -3 3 -24 19 -47 35 -24 16 -53 38 -65 50 -13
12 -43 37 -68 56 -197 150 -503 442 -628 599 -20 25 -41 51 -47 56 -18 17
-127 165 -176 240 -40 61 -69 109 -116 190 -13 24 -48 94 -57 115 -3 8 -10 22
-14 30 -5 8 -16 31 -24 50 -8 19 -23 52 -32 73 -9 21 -16 46 -16 55 0 10 -6
26 -13 37 -20 30 -38 123 -36 185 1 30 -1 919 -6 1975 -8 1919 -5 2179 26
2210 20 20 98 35 189 35 52 0 167 7 255 15 88 8 192 15 230 15 39 0 108 7 155
15 47 8 105 15 130 15 25 0 70 7 100 15 30 8 70 15 88 15 30 0 87 11 207 41
22 6 63 14 91 19 28 4 61 13 72 19 11 6 30 11 42 11 12 0 36 6 53 14 18 8 43
16 57 19 33 6 88 26 123 43 16 8 35 14 44 14 8 0 27 6 41 13 15 8 43 21 62 29
61 26 244 118 275 138 17 11 37 23 45 27 8 3 19 12 23 20 4 7 13 13 18 13 6 0
36 20 68 44 107 83 209 186 276 281 61 85 90 111 130 114 6 1 24 -8 41 -18z
m3228 -5596 c10 -8 25 -27 33 -42 13 -25 13 -34 -3 -83 -10 -30 -24 -62 -31
-71 -7 -8 -13 -20 -13 -25 0 -6 -23 -35 -50 -66 -67 -75 -120 -89 -167 -45
-20 18 -23 30 -23 98 0 56 4 80 15 89 8 7 15 18 15 24 1 16 170 134 195 135 6
0 18 -6 29 -14z m-6413 -61 c80 -61 104 -103 104 -182 0 -58 -3 -66 -29 -89
-42 -36 -95 -28 -144 23 -20 21 -42 47 -49 59 -46 83 -56 111 -57 169 -1 53 2
61 22 72 35 17 86 0 153 -52z m372 4 c54 -53 73 -172 37 -243 -24 -48 -77
-105 -97 -105 -24 0 -90 53 -108 87 -22 40 -16 80 20 157 30 63 84 126 108
126 9 0 27 -10 40 -22z m5601 -7 c52 -55 96 -149 96 -208 0 -39 -5 -49 -46
-88 -28 -27 -55 -45 -69 -45 -25 0 -79 58 -110 119 -17 33 -17 38 1 115 29
134 70 167 128 107z m-6080 -326 c11 -8 30 -15 42 -15 13 0 25 -4 28 -9 4 -5
26 -19 50 -31 53 -25 146 -116 146 -141 0 -44 -73 -119 -115 -119 -50 0 -151
71 -206 146 -35 48 -39 59 -39 112 0 32 3 62 7 65 12 12 68 7 87 -8z m6566 -4
c28 -54 -4 -141 -79 -214 -45 -45 -131 -97 -158 -97 -29 0 -74 32 -98 70 -24
39 -25 41 -9 72 24 46 77 90 152 127 37 19 78 39 92 46 39 20 88 18 100 -4z
m-5964 -39 c43 -36 54 -68 54 -152 0 -74 -3 -85 -32 -130 -47 -71 -83 -74
-146 -9 -28 29 -32 39 -32 89 0 45 7 70 31 116 54 102 83 122 125 86z m5332 4
c16 -9 40 -39 60 -77 27 -53 32 -75 32 -131 0 -66 0 -67 -41 -99 -51 -40 -92
-43 -117 -8 -40 58 -52 94 -52 161 0 70 10 96 54 146 23 26 28 27 64 8z
m-5106 -158 c8 -7 63 -68 122 -135 58 -67 150 -162 204 -210 53 -48 108 -100
122 -114 28 -29 149 -135 219 -192 60 -49 313 -240 326 -247 6 -3 56 -39 111
-81 55 -42 122 -89 149 -103 112 -61 205 -129 205 -150 0 -7 -17 -21 -39 -30
-46 -21 -69 -13 -100 36 -30 50 -130 142 -185 172 -52 28 -130 35 -168 15 -29
-16 -62 4 -92 55 -23 39 -48 72 -108 141 -38 45 -116 84 -187 93 -33 5 -69 16
-79 25 -10 9 -36 52 -57 94 -46 92 -112 161 -188 196 -55 25 -84 63 -101 131
-12 49 -77 137 -133 180 -29 23 -53 48 -53 57 0 9 -3 31 -6 48 -7 34 9 42 38
19z m4848 -50 c0 -28 -10 -41 -67 -88 -51 -43 -72 -69 -94 -117 -16 -34 -29
-67 -29 -75 0 -32 -42 -77 -102 -111 -102 -57 -157 -125 -206 -252 l-20 -50
-73 -6 c-41 -3 -88 -12 -104 -21 -48 -26 -160 -138 -201 -203 -46 -72 -52 -77
-84 -68 -14 3 -47 9 -75 12 -37 5 -50 10 -50 23 0 17 80 85 215 181 47 33 119
90 160 127 41 36 85 73 98 82 36 24 186 162 332 306 75 72 144 132 153 132 10
0 17 8 17 19 0 11 9 26 20 34 11 7 36 35 55 60 20 26 40 47 45 47 6 0 10 -15
10 -32z m-4876 -160 c17 -18 39 -51 49 -73 10 -22 25 -53 33 -68 8 -16 14 -50
14 -76 0 -61 -51 -152 -92 -163 -16 -5 -40 -11 -55 -16 -29 -8 -38 -29 -29
-66 8 -31 166 -196 188 -196 15 0 17 13 16 109 -1 93 2 115 21 155 25 51 54
76 88 76 36 0 96 -62 133 -137 30 -60 33 -77 33 -149 0 -93 -18 -128 -82 -161
-39 -20 -51 -31 -51 -51 0 -20 88 -109 173 -174 113 -86 152 -71 94 37 -17 33
-21 57 -21 135 1 104 15 147 58 176 22 14 27 14 57 -1 44 -23 94 -70 143 -135
61 -81 76 -120 76 -201 0 -75 -13 -105 -62 -147 -20 -17 -28 -33 -28 -56 0
-36 22 -61 80 -92 19 -10 54 -33 78 -51 50 -37 93 -49 121 -33 27 14 27 20 -9
81 -29 48 -31 60 -36 178 -7 150 1 181 45 181 16 0 41 -4 55 -10 37 -14 206
-184 206 -207 0 -11 7 -28 15 -39 33 -43 13 -171 -35 -229 -6 -7 -10 -30 -8
-50 3 -34 7 -38 53 -57 28 -11 58 -24 69 -30 42 -22 104 -36 115 -25 16 16 14
22 -22 101 -40 84 -67 171 -67 214 0 39 29 89 55 96 24 6 94 -12 116 -31 8 -7
19 -13 23 -13 4 0 34 -20 66 -45 64 -49 117 -110 145 -165 17 -33 17 -37 -1
-90 -10 -30 -24 -65 -32 -77 -19 -30 -8 -58 32 -83 26 -16 50 -20 111 -20 79
0 115 -14 115 -45 0 -20 -25 -25 -126 -25 -106 0 -150 -15 -160 -54 -3 -13 0
-34 6 -46 10 -18 9 -29 -7 -59 -27 -53 -102 -122 -174 -159 -62 -31 -68 -32
-183 -32 -191 0 -312 45 -291 109 15 49 245 251 286 251 10 0 23 9 29 21 9 16
8 25 -6 40 -22 25 -99 59 -131 59 -13 0 -68 21 -121 46 -153 73 -294 144 -327
165 -16 10 -37 22 -45 26 -26 12 -413 305 -459 347 -161 150 -303 307 -436
485 -151 203 -166 233 -121 251 34 13 46 40 46 104 0 31 7 69 17 88 9 18 23
47 31 63 22 44 53 75 75 75 10 0 33 -15 51 -32z m4964 12 c36 -30 79 -128 87
-200 10 -85 19 -108 47 -112 52 -7 32 -45 -161 -303 -162 -216 -385 -434 -638
-624 -111 -83 -207 -151 -212 -151 -5 0 -16 -6 -23 -13 -7 -6 -33 -22 -58 -35
-25 -12 -52 -27 -60 -32 -8 -5 -73 -36 -145 -70 -71 -34 -142 -68 -157 -76
-14 -8 -41 -14 -60 -14 -18 -1 -55 -14 -83 -29 -71 -41 -69 -66 9 -105 77 -38
256 -211 256 -248 0 -36 -32 -59 -108 -79 -87 -23 -291 -26 -330 -5 -15 8 -34
17 -42 21 -63 25 -152 110 -167 157 -6 21 -6 43 -1 58 26 71 -24 100 -172 100
-108 0 -123 7 -100 49 9 19 20 21 91 21 101 0 159 25 159 68 0 15 -8 39 -17
52 -13 18 -18 44 -18 90 0 58 4 71 35 116 33 50 145 154 164 154 5 0 17 6 25
13 28 24 106 40 130 28 65 -35 55 -153 -26 -318 -59 -118 -27 -124 174 -32 22
11 44 26 47 35 7 19 -2 64 -18 84 -47 59 -56 141 -25 221 38 97 199 249 264
249 43 0 52 -13 60 -87 8 -64 -11 -228 -27 -250 -6 -7 -18 -29 -29 -50 -18
-36 -18 -39 -2 -50 9 -7 20 -13 24 -13 20 0 97 34 125 55 18 14 37 25 42 25 5
0 28 14 50 30 36 26 42 35 42 68 0 27 -8 45 -27 66 -44 47 -63 95 -63 156 0
71 45 161 118 236 51 52 121 104 141 104 5 0 22 -13 38 -30 55 -58 61 -210 12
-316 -26 -56 -25 -74 7 -74 29 0 109 58 202 148 79 76 83 102 17 134 -62 30
-85 76 -85 168 0 39 4 78 9 88 6 9 20 39 32 65 13 26 39 66 60 88 57 62 99 53
155 -36 16 -24 19 -49 19 -144 0 -98 2 -116 16 -119 27 -5 178 155 194 206 9
32 -19 62 -60 62 -41 0 -87 48 -111 118 -18 50 -18 54 -1 105 30 85 56 134 90
166 36 36 53 38 85 11z m-5638 -26 c41 -8 88 -22 103 -30 16 -8 33 -14 38 -14
13 0 119 -80 119 -90 0 -5 7 -16 16 -24 19 -20 22 -119 5 -140 -36 -43 -200
-47 -265 -7 -50 31 -164 191 -179 251 -7 29 -1 42 28 58 27 15 48 15 135 -4z
m6368 0 c33 -23 28 -59 -18 -129 -11 -16 -23 -37 -27 -45 -7 -15 -27 -39 -80
-100 -42 -48 -99 -64 -194 -58 -93 7 -119 29 -119 102 0 46 4 56 45 102 44 51
148 113 190 115 11 0 36 7 55 14 48 19 121 18 148 -1z m-6108 -450 c127 -24
172 -48 235 -125 20 -24 44 -53 53 -64 24 -29 23 -104 -3 -130 -43 -43 -73
-55 -135 -55 -115 0 -245 88 -323 219 -47 79 -50 128 -9 153 34 22 75 22 182
2z m5881 -1 c112 -66 -113 -351 -296 -377 -54 -7 -102 7 -147 45 -34 27 -38
36 -38 75 0 37 7 54 42 100 49 66 147 144 180 144 13 1 48 7 78 15 78 19 146
18 181 -2z m-5486 -482 c87 -28 120 -47 181 -105 42 -39 56 -60 61 -89 5 -34
2 -41 -34 -75 -28 -27 -58 -42 -107 -56 -65 -18 -69 -18 -129 -1 -85 26 -134
63 -236 182 -66 77 -66 100 -1 119 25 8 61 14 80 15 19 0 51 7 70 14 46 18 46
18 115 -4z m3595 12 c-1 -5 -20 -33 -43 -63 -45 -58 -83 -74 -106 -46 -10 11
-7 19 13 39 47 47 137 93 136 70z m1596 -38 c55 -23 47 -55 -33 -146 -83 -93
-137 -130 -226 -154 -66 -17 -71 -17 -130 0 -83 24 -127 65 -127 117 0 22 6
46 13 55 51 64 152 138 203 146 54 10 265 -3 300 -18z m-4694 -339 c73 -20
173 -72 198 -103 14 -18 20 -41 20 -76 0 -84 -29 -114 -163 -171 -41 -18 -175
-22 -205 -7 -9 5 -51 25 -92 46 -92 44 -147 82 -172 116 -18 24 -18 29 -5 60
9 23 28 41 58 57 24 12 51 26 59 31 104 56 207 72 302 47z m4089 0 c36 -7 74
-18 85 -23 10 -6 46 -23 78 -39 64 -31 106 -69 106 -94 0 -34 -98 -109 -210
-161 -91 -43 -114 -49 -180 -49 -58 0 -81 6 -142 34 -107 50 -136 91 -119 168
13 56 36 84 101 120 97 54 175 66 281 44z m-3523 -294 c29 -11 70 -33 92 -51
38 -30 40 -35 40 -86 0 -54 -1 -56 -60 -115 -33 -33 -67 -60 -75 -60 -9 0 -27
-7 -40 -16 -39 -25 -212 -22 -295 6 -36 12 -69 26 -75 31 -5 5 -16 9 -25 9
-21 0 -90 58 -90 76 0 36 77 120 120 131 14 3 41 19 61 34 20 16 43 29 51 29
7 0 23 6 34 14 42 30 174 29 262 -2z m3054 1 c18 -9 40 -20 48 -24 8 -5 39
-21 69 -36 81 -42 141 -99 141 -133 0 -52 -49 -86 -196 -133 -66 -22 -228 -23
-264 -2 -14 8 -33 14 -43 15 -22 0 -120 73 -141 105 -21 32 -20 94 2 127 21
32 65 68 84 68 7 1 24 7 38 15 37 21 218 20 262 -2z"/>
<path d="M4602 7779 c-154 -175 -302 -298 -432 -359 -25 -12 -52 -26 -60 -31
-8 -5 -22 -12 -30 -15 -8 -3 -28 -12 -45 -19 -91 -39 -107 -45 -123 -45 -10 0
-26 -6 -37 -14 -11 -7 -33 -16 -50 -18 -16 -3 -43 -10 -60 -16 -44 -15 -114
-32 -165 -41 -25 -4 -61 -12 -80 -18 -45 -15 -154 -33 -255 -43 -44 -4 -100
-13 -125 -19 -25 -6 -81 -11 -125 -11 -44 0 -143 -7 -220 -15 -77 -8 -166 -15
-197 -15 -101 0 -91 182 -92 -1688 0 -1532 1 -1639 17 -1669 9 -18 17 -45 17
-61 0 -15 7 -37 15 -48 8 -10 15 -27 15 -37 0 -11 6 -31 14 -45 8 -15 31 -61
51 -102 20 -41 45 -88 55 -105 11 -16 23 -37 27 -45 9 -19 91 -139 117 -171
108 -133 148 -178 242 -274 131 -132 198 -194 284 -263 105 -85 339 -262 345
-262 4 0 33 -20 65 -45 32 -25 61 -45 64 -45 2 0 33 -19 68 -43 35 -24 70 -46
78 -50 8 -4 29 -16 45 -26 17 -11 53 -32 80 -47 28 -15 61 -34 75 -42 99 -56
155 -86 225 -122 44 -23 87 -45 95 -49 8 -5 33 -17 55 -26 22 -10 52 -24 67
-32 34 -17 99 -17 135 2 15 7 48 23 73 35 25 12 53 25 63 30 42 23 56 31 132
70 44 22 94 50 110 60 17 11 39 24 50 30 49 25 133 75 187 111 33 21 61 39 63
39 2 0 59 37 125 83 67 45 129 87 138 92 19 12 14 8 133 98 275 207 490 409
671 634 62 76 135 179 151 213 4 8 16 29 26 45 20 30 39 68 93 185 17 36 37
77 44 92 8 14 14 37 14 51 0 14 5 38 11 54 24 59 38 601 38 1518 1 1034 -12
1820 -30 1841 -8 9 -34 14 -78 14 -36 0 -106 5 -156 11 -49 5 -151 14 -225 19
-131 9 -220 19 -365 42 -38 6 -98 14 -131 18 -34 4 -67 10 -73 15 -7 4 -36 11
-64 15 -70 12 -159 35 -185 49 -11 6 -30 11 -41 11 -10 0 -32 6 -48 14 -15 8
-48 22 -73 31 -66 25 -171 72 -210 95 -8 5 -22 11 -30 14 -8 4 -28 15 -45 26
-16 11 -37 23 -45 27 -55 25 -185 143 -295 266 -49 55 -67 69 -98 74 -35 5
-40 3 -85 -48z m177 -190 c145 -139 265 -223 421 -295 41 -19 84 -39 94 -45
69 -39 409 -142 541 -164 99 -17 223 -36 260 -40 22 -2 91 -11 154 -19 63 -9
117 -14 120 -11 4 2 56 -3 116 -11 61 -8 130 -16 155 -18 53 -3 85 -18 102
-49 10 -17 13 -341 15 -1462 2 -1369 -1 -1567 -27 -1690 -6 -27 -12 -59 -15
-70 -14 -68 -87 -227 -169 -366 -52 -88 -168 -239 -246 -320 -195 -203 -219
-225 -367 -347 -120 -98 -210 -168 -247 -190 -15 -9 -45 -31 -66 -48 -53 -43
-357 -240 -425 -275 -22 -12 -69 -38 -105 -59 -36 -22 -128 -71 -205 -110
-123 -63 -147 -72 -195 -72 -60 0 -147 35 -310 127 -47 26 -121 68 -165 92
-141 78 -292 172 -448 280 -133 92 -404 308 -417 333 -6 11 -15 20 -21 20 -10
0 -28 16 -144 128 -127 123 -241 260 -337 405 -86 129 -186 352 -213 472 -11
49 -15 472 -16 1520 0 1172 5 1578 21 1622 14 38 61 63 133 69 514 43 703 70
947 136 41 11 92 23 112 27 20 5 60 17 90 29 29 11 85 33 123 48 39 14 94 39
124 55 30 16 60 29 67 29 8 0 14 3 14 8 0 4 24 20 53 36 60 34 151 103 212
161 124 118 146 135 167 135 15 0 50 -26 97 -71z"/>
</g>
</svg>
