<?xml version="1.0"?>
<svg xmlns="http://www.w3.org/2000/svg" xmlns:xlink="http://www.w3.org/1999/xlink" version="1.1" id="Capa_1" x="0px" y="0px" viewBox="0 0 611.997 611.997" style="enable-background:new 0 0 611.997 611.997;" xml:space="preserve" width="512px" height="512px"><g><g>
	<path d="M549.104,255.322v-4.152c0-132.788-108.03-240.818-240.818-240.818h-4.579C170.92,10.352,62.89,118.382,62.89,251.17v4.152   C25.481,275.518,0,315.088,0,360.499v2.127c0,65.859,53.583,119.441,119.441,119.441h20.467c7.799,0,14.123-6.322,14.123-14.123   V255.181c0-7.802-6.324-14.123-14.123-14.123h-13.459c17.315-82.151,90.348-144.013,177.575-144.013h3.952   c87.227,0,160.257,61.865,177.572,144.013h-13.459c-7.799,0-14.123,6.321-14.123,14.123v212.764   c0,7.802,6.324,14.123,14.123,14.123h20.467c3.025,0,6.011-0.15,8.979-0.373v0.412c0,40.35-32.828,73.177-73.177,73.177h-71.977   c-4.918-12.527-17.103-21.433-31.353-21.433h-17.343c-18.58,0-33.698,15.117-33.698,33.698v0.395c0,18.58,15.117,33.7,33.698,33.7   h17.343c12.956,0,24.21-7.361,29.848-18.111h73.482c55.924,0,101.423-45.496,101.423-101.423v-6.014   c47.682-15.685,82.216-60.608,82.216-113.47v-2.127C612,315.088,586.516,275.518,549.104,255.322z M307.976,68.799h-3.952   c-103.581,0-189.811,75.499-206.685,174.343c-2.028,0.381-4.039,0.811-6.028,1.294c3.576-114.103,97.446-205.835,212.399-205.835   h4.579c114.953,0,208.824,91.735,212.399,205.835c-1.991-0.483-4-0.912-6.028-1.294C497.784,144.295,411.557,68.799,307.976,68.799   z" data-original="#000000" class="active-path" data-old_color="#000000" fill="#FFFFFF"/>
</g></g> </svg>
