<?xml version="1.0" standalone="no"?>
<!DOCTYPE svg PUBLIC "-//W3C//DTD SVG 20010904//EN"
 "http://www.w3.org/TR/2001/REC-SVG-20010904/DTD/svg10.dtd">
<svg version="1.0" xmlns="http://www.w3.org/2000/svg"
 width="798.000000pt" height="726.000000pt" viewBox="0 0 798.000000 726.000000"
 preserveAspectRatio="xMidYMid meet">
<metadata>
Created by potrace 1.10, written by Peter Selinger 2001-2011
</metadata>
<g transform="translate(0.000000,726.000000) scale(0.100000,-0.100000)"
fill="white" stroke="none">
<path d="M3785 6809 c-71 -4 -168 -12 -215 -18 -47 -5 -125 -13 -175 -17 -49
-3 -102 -13 -117 -20 -15 -8 -36 -14 -48 -14 -11 0 -47 -9 -79 -20 -33 -11
-98 -26 -146 -35 -48 -8 -102 -23 -119 -34 -17 -10 -69 -31 -116 -46 -47 -15
-119 -45 -160 -65 -41 -21 -95 -47 -120 -59 -84 -40 -217 -116 -251 -142 -19
-14 -52 -36 -74 -48 -41 -23 -71 -43 -165 -114 -199 -150 -448 -391 -517 -499
-13 -21 -27 -38 -31 -38 -9 0 -92 -108 -126 -164 -11 -17 -37 -53 -58 -80 -21
-27 -38 -53 -38 -59 0 -6 -7 -18 -15 -27 -8 -8 -42 -69 -76 -135 -34 -66 -69
-133 -79 -150 -10 -16 -21 -41 -25 -55 -4 -14 -13 -32 -20 -40 -6 -8 -26 -55
-43 -105 -16 -49 -40 -117 -52 -150 -47 -126 -128 -471 -140 -598 -29 -286
-30 -573 -5 -752 3 -22 10 -87 16 -144 6 -58 16 -118 21 -135 5 -17 16 -67 24
-111 9 -43 20 -87 25 -97 5 -9 15 -45 23 -80 37 -166 251 -647 326 -733 10
-11 33 -47 51 -80 30 -54 72 -113 143 -201 15 -18 26 -36 26 -41 0 -5 10 -19
23 -30 12 -11 40 -41 62 -66 111 -126 163 -183 195 -211 19 -17 50 -47 70 -68
19 -20 51 -47 70 -60 20 -13 53 -40 75 -60 47 -43 165 -132 197 -149 13 -6 32
-19 43 -29 11 -10 47 -32 80 -50 33 -18 67 -38 75 -46 26 -22 110 -64 129 -64
10 0 28 -11 41 -25 13 -14 29 -25 35 -25 7 0 33 -11 59 -25 26 -14 53 -25 60
-25 7 0 33 -10 57 -23 24 -13 76 -34 114 -47 39 -12 105 -36 147 -51 42 -16
85 -29 95 -29 10 0 74 -13 143 -30 210 -50 269 -59 440 -70 279 -17 605 -8
725 20 22 5 78 14 125 21 47 7 92 16 101 20 9 5 61 18 115 29 96 21 218 58
279 85 17 7 45 16 64 20 18 4 49 18 68 31 20 13 46 24 58 24 12 0 34 9 48 20
14 11 30 20 36 20 9 0 100 42 156 73 11 6 34 19 52 28 17 9 46 28 63 43 17 14
36 26 40 26 14 0 176 107 218 143 20 18 51 41 67 52 91 57 399 359 503 494 31
40 69 87 85 103 15 16 27 34 27 40 0 6 20 39 45 72 73 98 133 194 145 231 6
19 16 35 21 35 5 0 18 19 28 43 10 23 39 86 65 139 25 53 46 100 46 104 0 4 6
15 13 23 7 9 25 54 39 101 15 47 34 108 43 135 9 28 25 84 36 125 10 41 26
100 35 129 16 56 19 69 48 265 9 59 18 112 21 116 10 16 5 597 -5 675 -31 227
-55 354 -68 367 -7 7 -12 24 -12 39 0 40 -27 150 -50 204 -11 26 -20 57 -20
70 0 13 -4 27 -10 30 -5 3 -17 32 -26 63 -9 31 -20 62 -25 68 -5 6 -15 28 -23
50 -7 21 -34 80 -59 131 -25 50 -48 102 -52 114 -4 12 -25 47 -46 78 -22 31
-39 61 -39 67 0 6 -12 27 -27 47 -16 19 -36 48 -45 64 -87 140 -104 164 -166
230 -24 25 -60 68 -81 97 -21 28 -62 76 -92 107 -69 73 -273 257 -319 289 -19
13 -47 36 -61 50 -14 14 -39 32 -55 40 -16 7 -42 26 -59 41 -16 16 -52 40 -80
54 -27 15 -60 36 -72 47 -21 20 -132 81 -233 129 -25 12 -85 41 -135 65 -49
23 -103 46 -120 49 -16 4 -52 17 -80 30 -104 47 -124 55 -144 55 -11 0 -78 16
-148 36 -139 38 -352 74 -448 74 -33 0 -118 7 -190 15 -71 8 -134 14 -140 13
-5 0 -68 -4 -140 -9z m45 -129 c0 -42 -19 -51 -102 -48 -68 3 -73 5 -76 27 -5
34 10 44 86 56 76 13 92 7 92 -35z m241 19 c33 -47 18 -63 -65 -67 -73 -3 -96
7 -96 41 0 38 29 57 86 57 48 0 55 -3 75 -31z m260 -20 c40 -21 -4 -86 -51
-74 -14 4 -40 9 -58 12 -41 7 -63 43 -41 69 11 13 25 15 72 10 32 -3 67 -11
78 -17z m-767 5 c21 -8 20 -37 -1 -62 -15 -17 -32 -21 -93 -24 l-75 -3 -3 28
c-4 33 11 54 41 60 36 7 114 7 131 1z m948 -25 c84 -28 98 -42 73 -69 -20 -22
-30 -22 -130 -4 -40 7 -43 10 -38 41 10 63 7 62 95 32z m-1196 -20 c14 -15 16
-24 8 -37 -16 -25 -94 -61 -135 -61 -33 -1 -37 2 -42 29 -9 41 0 59 32 65 14
3 37 10 51 14 42 15 66 12 86 -10z m1487 -54 c35 -6 37 -8 37 -45 l0 -40 -44
0 c-25 0 -48 6 -55 14 -7 8 -24 17 -39 21 -43 11 -54 41 -27 69 14 14 20 14
53 2 20 -8 54 -17 75 -21z m-1735 -7 c7 -7 12 -19 12 -27 0 -25 -50 -61 -84
-61 -17 0 -40 -3 -52 -6 -23 -6 -57 21 -51 40 6 19 100 66 133 66 16 0 35 -5
42 -12z m1950 -69 c71 -38 78 -50 47 -79 -24 -23 -25 -23 -67 -6 -87 36 -93
41 -91 71 4 53 31 57 111 14z m-2190 -21 c26 -26 13 -49 -43 -74 -64 -28 -107
-31 -126 -8 -18 22 -2 44 52 71 49 24 99 29 117 11z m2401 -67 c10 -10 30 -21
44 -25 35 -8 52 -41 38 -72 -13 -30 -44 -31 -78 -4 -14 11 -33 20 -42 20 -10
0 -22 5 -29 12 -13 13 -17 70 -5 81 13 13 53 7 72 -12z m-2633 -36 c13 -34 -5
-62 -55 -84 -115 -49 -155 2 -54 68 50 33 100 40 109 16z m2895 -109 c17 -14
35 -26 40 -26 5 0 9 -13 9 -29 0 -54 -56 -50 -131 10 -39 31 -50 62 -26 73 24
11 78 -3 108 -28z m-3121 -37 c0 -22 -6 -32 -24 -39 -14 -5 -33 -21 -42 -35
-14 -22 -23 -26 -58 -23 -57 4 -59 29 -6 78 81 75 130 82 130 19z m3283 -63
c39 -16 97 -79 97 -106 0 -38 -44 -36 -105 4 -55 37 -65 58 -49 100 7 19 16
20 57 2z m-3495 -74 c3 -37 0 -43 -22 -51 -13 -6 -28 -17 -33 -26 -20 -35
-103 -36 -103 0 0 27 114 128 139 123 11 -2 17 -17 19 -46z m3729 -113 c88
-75 96 -99 30 -99 -35 0 -50 7 -85 37 -34 29 -42 43 -42 70 0 28 3 33 24 33
14 0 45 -17 73 -41z m-3929 -46 c6 -39 -106 -133 -142 -120 -31 12 -17 50 36
99 38 37 58 48 77 46 18 -2 27 -10 29 -25z m4136 -143 c47 -50 50 -57 40 -84
-14 -37 -85 -6 -126 55 -40 60 -37 79 12 79 20 0 40 -14 74 -50z m-4321 -32
c4 -28 -1 -38 -29 -64 -19 -18 -34 -36 -34 -42 0 -5 -14 -15 -31 -22 -26 -11
-33 -11 -46 2 -21 22 -10 48 45 107 57 61 87 67 95 19z m4479 -150 c79 -82 84
-108 22 -108 -27 0 -41 8 -67 36 -49 56 -68 90 -61 109 11 28 60 11 106 -37z
m-4640 -20 c9 -25 -8 -58 -56 -112 -41 -46 -52 -54 -67 -45 -24 12 -26 71 -3
90 8 7 22 25 30 40 17 34 87 53 96 27z m2974 -37 c45 -9 159 -85 169 -113 3
-9 19 -33 35 -53 23 -29 30 -48 30 -81 0 -67 -23 -84 -112 -84 -40 0 -79 4
-86 9 -7 4 -27 30 -45 57 -50 76 -114 97 -209 70 -45 -14 -58 -22 -68 -46 -20
-48 4 -73 97 -103 43 -14 99 -30 124 -36 25 -6 83 -24 127 -41 62 -24 90 -41
122 -76 107 -116 111 -267 10 -393 -57 -73 -212 -133 -340 -133 -162 -1 -352
110 -375 218 -4 16 -14 46 -22 67 -16 36 -15 38 6 61 19 21 36 25 108 31 96 8
103 5 118 -57 8 -33 21 -50 60 -80 46 -35 55 -38 115 -38 107 1 173 52 168
129 -3 32 -7 36 -71 61 -37 16 -83 31 -102 34 -19 4 -54 16 -77 26 -24 11 -55
20 -69 20 -14 0 -40 11 -59 25 -19 14 -39 25 -45 25 -12 0 -77 74 -108 122
-27 43 -24 172 6 220 43 70 155 155 213 161 73 7 239 6 280 -2z m-2165 -29
c62 -29 122 -96 148 -166 11 -31 21 -63 21 -70 0 -37 -37 -115 -71 -150 -22
-22 -39 -43 -39 -47 0 -4 20 -24 46 -45 64 -53 95 -111 100 -187 4 -74 -9
-121 -47 -165 -16 -18 -29 -37 -29 -42 0 -5 -26 -24 -57 -43 -55 -33 -149 -61
-203 -59 -14 1 -127 1 -252 2 -191 0 -229 3 -242 16 -9 8 -16 21 -16 27 0 7
-1 214 -1 460 0 399 2 452 16 474 l17 25 281 -4 c265 -4 285 -5 328 -26z
m1284 14 c26 -19 34 -126 11 -161 l-16 -25 -248 -2 -247 -3 -3 -71 c-2 -53 1
-76 12 -87 12 -12 55 -15 233 -16 248 -1 243 1 243 -82 0 -51 -14 -99 -32
-110 -7 -4 -107 -7 -225 -8 -117 0 -217 -3 -223 -6 -15 -10 -13 -190 3 -203 9
-8 91 -10 251 -8 l237 3 20 -25 c14 -19 19 -41 19 -88 0 -101 15 -97 -392 -96
-305 1 -343 3 -359 18 -18 16 -19 41 -19 475 0 326 3 465 12 484 l11 25 347 0
c277 0 350 -3 365 -14z m2213 2 c14 -14 16 -156 3 -177 -7 -10 -36 -13 -127
-12 -66 0 -125 -3 -132 -7 -10 -7 -13 -88 -13 -385 0 -374 0 -377 -22 -392
-32 -22 -189 -16 -214 9 -3 3 -5 172 -4 375 1 329 -1 372 -16 386 -13 14 -35
16 -125 14 -89 -2 -112 0 -125 13 -23 24 -28 106 -10 151 l16 37 378 0 c282 0
382 -3 391 -12z m495 -135 c57 -69 62 -103 16 -103 -58 0 -139 109 -108 146
21 25 43 15 92 -43z m-4955 -46 c3 -21 -8 -40 -44 -83 -53 -62 -82 -68 -99
-20 -8 25 -6 31 18 52 15 13 33 38 39 54 9 28 14 31 47 28 31 -3 36 -7 39 -31z
m5086 -161 c36 -53 41 -71 30 -100 -10 -25 -32 -19 -65 17 -36 37 -49 67 -49
108 0 24 4 29 24 29 19 0 34 -13 60 -54z m-5236 -28 c18 -18 14 -57 -8 -85
-11 -14 -20 -32 -20 -39 0 -7 -11 -21 -25 -30 -21 -14 -31 -15 -50 -6 -14 7
-25 18 -25 25 0 26 58 120 82 133 29 17 31 17 46 2z m5340 -164 c12 -8 22 -23
22 -32 0 -9 9 -32 20 -50 26 -43 25 -56 -5 -70 -40 -18 -54 -14 -61 16 -4 15
-17 41 -30 59 -26 35 -30 63 -12 81 16 16 39 15 66 -4z m-5448 -89 c23 -25 23
-25 4 -47 -11 -13 -26 -36 -34 -51 -8 -16 -22 -33 -32 -38 -62 -33 -81 54 -27
122 36 45 56 49 89 14z m5558 -147 c7 -7 12 -22 12 -34 0 -12 9 -33 20 -47 26
-32 25 -53 -1 -67 -35 -19 -67 -4 -78 36 -6 20 -18 45 -27 55 -14 16 -15 24
-6 44 13 27 58 35 80 13z m-5658 -73 c15 -14 14 -20 -9 -90 l-24 -76 -35 3
c-51 4 -60 27 -35 80 12 23 26 55 32 71 12 31 44 36 71 12z m5743 -170 c16
-16 33 -127 22 -144 -12 -20 -53 -11 -74 15 -44 56 -36 144 13 144 14 0 31 -7
39 -15z m-5819 -81 c20 -20 20 -39 0 -97 -12 -35 -22 -49 -40 -53 -45 -11 -54
0 -54 70 0 56 3 67 22 80 29 20 52 20 72 0z m3321 -42 c16 -8 53 -39 82 -68
46 -46 53 -58 53 -93 0 -47 -14 -58 -84 -67 -45 -7 -47 -6 -90 42 -40 43 -49
48 -101 54 -72 8 -92 -3 -132 -70 -31 -51 -33 -60 -33 -146 0 -84 2 -94 29
-130 55 -75 78 -89 149 -85 22 1 92 66 92 85 0 14 42 56 55 56 7 0 36 -10 64
-21 69 -29 74 -52 28 -127 -41 -68 -123 -124 -206 -142 -107 -24 -241 29 -325
128 -60 71 -70 109 -63 261 5 111 8 127 31 160 14 20 26 41 26 46 0 16 90 95
128 112 74 33 236 36 297 5z m1410 1 c39 -20 103 -80 121 -116 18 -35 10 -83
-16 -97 -10 -6 -39 -10 -64 -10 -40 0 -50 5 -88 44 -47 48 -84 60 -150 50 -43
-7 -53 -21 -45 -57 5 -18 25 -28 114 -56 151 -48 197 -73 237 -128 89 -123 40
-255 -121 -323 -72 -30 -84 -32 -151 -26 -69 5 -157 40 -202 78 -40 35 -100
153 -84 167 11 10 104 31 139 31 18 0 28 -9 40 -35 23 -48 60 -85 87 -86 94
-6 148 16 148 60 0 48 -23 66 -107 85 -43 10 -96 27 -119 37 -22 10 -45 19
-50 19 -14 0 -67 58 -94 103 -32 54 -23 135 22 186 38 44 98 82 147 92 52 11
201 -1 236 -18z m-3563 1 c49 -19 112 -75 135 -119 12 -22 14 -47 10 -104 -7
-90 -36 -138 -112 -185 -45 -28 -59 -31 -150 -34 -55 -2 -104 -8 -110 -13 -5
-6 -12 -59 -15 -120 -6 -126 -7 -129 -91 -129 -94 0 -88 -21 -90 352 -2 305
-1 329 16 348 17 19 30 20 191 20 137 0 183 -3 216 -16z m448 6 c13 -8 15 -52
18 -280 3 -256 4 -270 22 -280 12 -7 75 -9 158 -7 76 2 144 1 150 -1 16 -5 15
-104 -1 -126 -11 -15 -39 -18 -235 -22 l-222 -5 -25 25 c-28 28 -26 -1 -28
460 -2 207 -1 208 22 227 25 21 114 26 141 9z m844 1 c27 -11 96 -137 96 -176
0 -12 11 -43 25 -69 14 -26 25 -52 25 -58 0 -15 70 -170 85 -188 7 -8 16 -33
20 -54 3 -22 15 -51 26 -64 22 -29 24 -61 5 -87 -29 -40 -161 -11 -184 40 -7
14 -12 32 -12 39 0 7 -9 21 -21 32 -18 16 -35 18 -131 17 -116 -2 -148 -14
-148 -54 0 -33 -46 -74 -99 -88 -56 -14 -90 -8 -92 17 -3 39 4 70 26 122 31
71 70 174 85 225 7 22 17 45 21 51 5 6 16 34 24 61 21 70 82 200 106 224 21
21 98 26 143 10z m1677 -2 c45 -24 42 -119 -4 -136 -12 -4 -92 -8 -177 -8
l-155 0 -3 -43 c-5 -70 0 -72 167 -72 101 0 151 -4 159 -12 17 -17 15 -100 -2
-124 -15 -20 -49 -21 -255 -13 -41 2 -57 -2 -66 -14 -16 -22 -10 -127 7 -139
7 -5 88 -7 179 -6 195 3 204 0 196 -70 -9 -78 -5 -77 -282 -77 -231 0 -246 1
-264 20 -19 19 -20 35 -22 349 -1 306 0 331 17 343 23 17 474 19 505 2z m1749
-138 c5 -11 10 -49 10 -85 0 -58 -2 -65 -22 -72 -17 -5 -28 1 -49 27 -16 19
-29 43 -30 54 -3 35 2 69 13 82 16 20 66 16 78 -6z m-5928 -83 c3 -20 -8 -98
-18 -135 -5 -19 -71 -16 -78 3 -9 24 -7 100 4 128 8 22 16 26 49 26 33 0 40
-3 43 -22z m5970 -180 c13 -21 9 -123 -6 -143 -12 -16 -17 -17 -44 -6 -16 7
-33 22 -36 34 -10 37 -7 122 5 134 13 13 68 0 81 -19z m-6018 -131 c0 -94 -16
-120 -57 -93 -39 26 -48 78 -22 140 14 33 19 37 48 34 l32 -3 -1 -78z m6026
-131 c9 -54 -3 -140 -21 -144 -33 -6 -60 30 -66 89 -5 51 -3 58 18 73 35 24
63 17 69 -18z m-6032 -71 c15 -32 15 -100 2 -126 -8 -14 -21 -19 -50 -19 l-40
0 -2 55 c-1 30 -2 63 -2 72 -1 18 37 43 65 43 9 0 21 -11 27 -25z m6021 -159
c7 -9 11 -42 9 -88 l-3 -73 -33 -3 c-50 -5 -65 13 -57 67 11 77 17 92 39 101
29 12 32 12 45 -4z m-2683 -81 c85 -55 154 -176 154 -268 0 -152 -146 -307
-290 -307 -69 0 -112 20 -177 82 -85 83 -98 118 -94 258 1 45 8 66 35 108 46
72 127 135 185 143 64 10 160 2 187 -16z m-3338 -2 c5 -10 14 -45 22 -77 12
-58 11 -61 -10 -78 -30 -24 -41 -20 -64 28 -26 53 -26 112 -1 130 25 19 42 18
53 -3z m2926 1 c19 -18 19 -19 5 -47 -18 -33 -28 -37 -95 -37 -43 0 -65 -5
-74 -15 -10 -12 -12 -61 -6 -220 6 -197 6 -205 -14 -225 -11 -11 -33 -20 -50
-20 -46 0 -52 27 -49 258 2 166 -1 206 -12 213 -8 5 -39 9 -70 9 -30 0 -62 6
-71 13 -25 19 -31 53 -13 71 24 24 426 24 449 0z m866 -173 c36 -26 48 -66 29
-99 -13 -24 -22 -27 -71 -30 -52 -3 -58 -1 -74 23 -20 31 -13 79 18 113 25 26
55 24 98 -7z m-1562 -1 c27 -17 32 -25 32 -58 0 -49 -22 -70 -82 -78 -40 -6
-47 -4 -62 17 -22 32 -20 81 5 113 25 32 61 34 107 6z m3762 -8 l23 -18 -19
-65 c-22 -71 -45 -86 -79 -49 -15 16 -16 25 -7 43 6 12 13 35 17 52 7 31 22
55 35 55 4 0 18 -8 30 -18z m-3978 -27 c9 -19 8 -29 -5 -48 l-16 -25 -540 3
c-297 2 -550 6 -561 10 -26 8 -28 60 -2 74 11 7 211 10 565 11 l547 0 12 -25z
m2976 16 c8 -5 12 -22 10 -42 l-3 -34 -75 -7 c-91 -9 -984 -3 -999 6 -15 10
-14 73 2 79 21 9 1051 7 1065 -2z m-4935 -116 c7 -59 -2 -105 -22 -105 -5 0
-23 11 -39 25 -24 20 -30 35 -35 77 -2 29 -3 57 0 61 3 4 24 7 46 5 l42 -3 8
-60z m5888 -115 c24 -13 24 -25 -2 -105 -19 -55 -25 -65 -45 -65 -14 0 -30 10
-40 26 -16 24 -16 27 -1 54 9 15 17 34 17 42 0 18 28 58 41 58 6 0 19 -5 30
-10z m-5853 -82 c15 -20 44 -129 38 -145 -9 -23 -70 -13 -75 12 -2 11 -14 33
-27 48 -41 49 -25 96 32 97 12 0 26 -6 32 -12z m5802 -173 c18 -22 -1 -80 -44
-129 -41 -48 -66 -44 -66 9 0 36 21 97 41 122 15 18 54 17 69 -2z m-5720 -87
c26 -35 30 -50 28 -88 -3 -42 -5 -45 -34 -48 -37 -4 -47 8 -64 70 -10 38 -10
54 0 78 17 41 34 38 70 -12z m2610 -35 c90 -32 154 -76 195 -133 17 -23 37
-49 47 -58 37 -38 61 -263 38 -354 -6 -21 -14 -55 -20 -75 -18 -71 -180 -233
-232 -233 -9 0 -29 -5 -45 -12 -65 -28 -282 -7 -348 33 -55 33 -135 124 -167
190 -28 58 -31 75 -36 189 -4 120 -3 129 23 195 16 38 43 90 62 116 35 49 113
119 133 119 6 0 27 8 48 17 62 28 74 31 152 32 58 1 92 -5 150 -26z m-1553
-13 c20 -41 44 -128 58 -214 18 -101 51 -246 59 -253 11 -11 18 5 31 74 8 37
29 122 48 188 19 66 37 136 41 156 11 59 35 71 148 70 85 0 104 -11 119 -64 6
-23 17 -57 25 -75 8 -18 14 -44 14 -59 0 -14 9 -56 20 -92 11 -36 24 -97 29
-135 19 -133 31 -107 103 229 6 28 14 61 18 75 5 14 11 41 15 61 3 21 11 42
18 47 6 6 47 12 90 13 60 3 80 0 87 -11 15 -24 11 -92 -6 -125 -9 -16 -20 -48
-24 -70 -7 -35 -23 -106 -60 -270 -23 -102 -96 -371 -103 -382 -6 -9 -37 -13
-99 -13 -98 0 -128 12 -128 54 0 11 -13 65 -29 121 -16 55 -44 159 -61 230
-17 72 -35 134 -40 139 -5 5 -13 -11 -20 -35 -6 -24 -22 -79 -35 -121 -14 -43
-25 -85 -25 -95 0 -10 -7 -43 -15 -73 -9 -30 -22 -84 -30 -120 -20 -90 -35
-100 -145 -100 -58 0 -91 4 -97 13 -11 13 -28 72 -47 162 -7 33 -23 98 -35
145 -25 95 -59 232 -91 360 -11 47 -23 95 -26 107 -9 33 4 73 26 81 11 4 50 7
87 7 62 -1 69 -3 80 -25z m2452 12 c46 -6 93 -14 104 -18 33 -10 104 -89 112
-123 3 -17 11 -33 16 -36 5 -4 9 -35 9 -70 0 -35 -4 -66 -9 -70 -5 -3 -12 -18
-16 -34 -7 -34 -86 -111 -113 -111 -10 0 -27 -6 -38 -14 -18 -14 -17 -17 32
-63 27 -26 55 -59 61 -73 6 -14 34 -56 63 -95 66 -89 72 -100 68 -133 l-3 -26
-105 1 c-120 1 -103 -10 -194 128 -88 135 -104 155 -142 186 -41 32 -84 38
-108 13 -13 -12 -16 -41 -16 -155 0 -176 -3 -181 -112 -173 -40 3 -79 11 -87
19 -11 11 -13 88 -13 415 1 445 -1 436 66 442 72 7 347 1 425 -10z m580 1 c21
-17 22 -27 23 -175 1 -124 4 -158 15 -158 7 0 13 4 13 9 0 14 103 129 243 273
l57 59 58 -2 c31 0 76 2 99 6 36 6 42 5 53 -14 16 -30 4 -58 -31 -77 -17 -8
-40 -31 -51 -50 -11 -19 -23 -34 -28 -34 -4 0 -39 -36 -79 -80 -79 -90 -85
-112 -46 -158 14 -17 25 -34 25 -40 0 -5 12 -25 28 -45 15 -20 38 -55 52 -78
23 -39 65 -104 133 -203 15 -23 26 -52 25 -66 -3 -24 -6 -25 -85 -28 -97 -3
-144 7 -158 34 -5 11 -22 35 -36 54 -15 19 -40 59 -55 88 -50 93 -61 111 -88
147 -15 19 -31 35 -37 35 -11 0 -79 -73 -96 -104 -8 -13 -12 -63 -13 -128 0
-96 -2 -108 -19 -118 -25 -13 -131 -13 -165 0 l-26 10 0 394 c0 235 4 405 10
421 12 32 40 44 106 44 35 1 59 -5 73 -16z m1526 -103 c25 -27 13 -105 -23
-142 -29 -32 -48 -35 -72 -13 -16 14 -16 19 -2 63 15 46 57 112 72 112 4 0 15
-9 25 -20z m-5550 -68 c6 -4 25 -29 44 -56 30 -43 33 -52 25 -85 -12 -50 -35
-50 -74 -1 -36 45 -50 110 -30 135 14 17 20 18 35 7z m5454 -184 c9 -25 8 -36
-4 -52 -8 -12 -27 -38 -41 -59 -20 -31 -29 -37 -47 -31 -12 3 -26 10 -31 14
-22 21 59 160 94 160 11 0 22 -12 29 -32z m-5318 -62 c21 -24 34 -45 60 -93
18 -33 5 -53 -35 -53 -29 0 -38 5 -50 28 -8 16 -22 34 -30 41 -21 17 -20 65 0
85 21 22 31 20 55 -8z m5192 -147 c14 -22 -10 -69 -63 -129 -39 -44 -40 -45
-56 -25 -20 26 -10 82 19 111 12 12 30 31 40 43 20 25 45 24 60 0z m-5029
-111 c54 -62 63 -108 21 -108 -21 0 -85 45 -107 75 -9 12 -10 89 -2 98 11 11
41 -11 88 -65z m4874 -94 c33 -23 27 -41 -31 -99 -55 -55 -107 -81 -107 -52 0
42 79 166 105 167 6 0 21 -7 33 -16z m-4727 -96 c41 -45 67 -104 52 -119 -25
-25 -162 94 -148 128 3 8 5 19 5 24 0 5 12 9 26 9 17 0 38 -14 65 -42z m4574
-124 c-4 -25 -22 -52 -55 -85 -51 -51 -67 -58 -88 -37 -21 21 -13 42 41 101
40 43 60 57 81 57 27 0 28 -2 21 -36z m-4402 -77 c97 -112 60 -146 -57 -53
-63 50 -71 106 -16 106 22 0 39 -12 73 -53z m4223 -91 c15 -39 -64 -119 -129
-131 -35 -7 -37 -6 -37 20 0 26 17 46 86 103 31 25 72 29 80 8z m-4032 -73
c49 -41 65 -75 46 -98 -20 -24 -47 -18 -99 23 -52 39 -70 74 -50 98 20 24 56
16 103 -23z m3844 -96 c4 -30 -21 -67 -43 -67 -7 0 -20 -11 -29 -25 -12 -18
-25 -25 -50 -25 -47 0 -63 22 -39 54 10 14 25 28 34 31 8 3 29 19 45 36 38 39
77 37 82 -4z m-2723 -7 c43 -11 86 -26 94 -33 24 -19 86 -38 104 -31 24 9 76
-23 83 -52 4 -16 0 -39 -10 -60 -23 -48 -21 -109 4 -134 25 -25 32 -25 61 -1
19 15 27 37 39 106 22 131 59 142 111 35 l26 -54 6 34 c10 48 34 80 60 80 30
-1 96 -61 106 -97 4 -15 16 -30 26 -32 16 -3 17 2 12 38 -4 30 -1 47 12 62 16
20 19 21 47 6 51 -26 53 -33 50 -176 -3 -151 -3 -151 -83 -151 -47 0 -54 3
-70 28 -53 86 -71 111 -77 105 -3 -3 -6 -29 -6 -58 0 -57 -12 -75 -50 -75 -61
0 -67 7 -66 67 1 64 -20 86 -30 33 -5 -22 -15 -34 -33 -41 -14 -5 -34 -14 -43
-19 -10 -6 -30 -10 -46 -10 -46 0 -165 37 -179 56 -8 12 -13 51 -13 111 0 88
-1 93 -25 109 -14 9 -31 14 -37 11 -7 -2 -23 -36 -36 -73 -45 -134 -53 -146
-81 -139 -43 11 -61 34 -61 80 0 25 6 48 14 55 8 6 20 27 26 45 12 38 -1 74
-39 109 -25 23 -27 43 -4 68 20 22 13 22 108 -2z m-908 -75 c47 -46 54 -57 43
-70 -16 -20 -76 -20 -84 0 -3 9 -21 25 -41 36 -34 21 -53 57 -40 78 3 6 20 11
36 11 23 0 43 -13 86 -55z m2487 -2 c22 -26 63 -68 89 -93 50 -49 87 -97 87
-116 0 -24 -52 -35 -139 -28 l-87 7 -40 -46 c-37 -42 -45 -46 -101 -52 -48 -6
-65 -4 -86 10 -31 20 -52 75 -42 113 4 15 -1 55 -11 93 l-18 68 31 31 30 31
31 -35 c16 -19 33 -48 37 -65 4 -17 11 -31 16 -31 13 0 29 45 29 83 0 41 8 51
45 65 61 22 85 15 129 -35z m-607 -76 c10 3 31 16 48 27 20 14 50 22 96 24
l66 4 7 -43 c8 -48 4 -54 -42 -66 -45 -11 -41 -26 11 -37 52 -10 67 -33 67
-99 0 -35 -5 -47 -32 -71 -18 -15 -43 -32 -56 -37 -28 -11 -240 -10 -262 1
-22 12 -19 259 4 313 l17 38 28 -30 c21 -22 35 -29 48 -24z m1529 6 c6 -22 1
-32 -37 -65 -55 -48 -87 -63 -105 -47 -29 23 -6 89 30 89 7 0 23 11 36 25 32
34 68 33 76 -2z m-3150 -101 c8 -28 -11 -52 -41 -52 -12 0 -48 17 -79 37 -61
41 -73 72 -34 90 31 14 145 -42 154 -75z m2907 -7 c20 -8 38 -19 41 -24 18
-28 -124 -119 -166 -105 -38 12 -12 84 31 84 22 0 41 19 41 42 0 22 7 22 53 3z
m-2757 -51 c19 -9 34 -20 34 -25 0 -5 14 -15 30 -24 38 -20 38 -29 -1 -45 -69
-29 -207 58 -153 97 24 17 49 16 90 -3z m2558 -79 c9 -25 -15 -64 -45 -70 -15
-3 -37 -15 -50 -26 -29 -25 -45 -24 -65 6 -25 39 -15 57 40 71 27 7 53 17 59
23 16 16 54 13 61 -4z m-2323 -26 c18 -18 33 -25 60 -28 11 -2 19 -30 12 -47
-5 -13 -17 -15 -66 -12 -51 4 -63 9 -83 33 -25 31 -22 52 10 65 33 14 44 12
67 -11z m2062 -51 c9 -7 19 -25 22 -40 8 -31 4 -33 -93 -61 -51 -15 -53 -15
-73 6 -10 12 -18 26 -16 31 4 11 113 72 133 75 5 0 18 -5 27 -11z m-1759 -48
c32 -12 33 -33 5 -61 -32 -32 -96 -18 -168 38 -2 1 4 12 15 24 16 18 26 20 71
15 28 -3 63 -10 77 -16z m1524 -57 c2 -16 -10 -28 -53 -52 -65 -37 -85 -37
-102 1 -17 35 -8 55 30 67 75 23 120 17 125 -16z m-1343 16 c22 -6 52 -23 67
-37 27 -25 27 -26 10 -45 -14 -16 -26 -18 -69 -14 -73 8 -93 21 -93 62 0 45
18 52 85 34z m1093 -63 c4 -36 -7 -47 -65 -62 -39 -10 -53 -10 -75 2 -16 8
-28 19 -28 23 0 5 -3 16 -6 25 -6 15 30 29 101 39 58 8 70 4 73 -27z m-765 2
c22 -11 23 -64 1 -72 -25 -10 -124 -7 -145 4 -24 14 -26 65 -2 79 19 10 118 3
146 -11z m275 -32 c2 -16 0 -32 -5 -37 -12 -12 -117 -23 -147 -15 -22 5 -26
12 -26 45 0 22 4 41 10 43 5 2 45 1 87 -2 77 -5 78 -5 81 -34z m226 38 c19 -7
22 -73 4 -79 -7 -2 -46 -5 -86 -8 -81 -5 -93 3 -76 52 6 17 19 28 39 32 41 9
100 10 119 3z"/>
<path d="M2030 5346 c-5 -5 -10 -45 -10 -88 0 -67 3 -79 20 -88 11 -6 25 -8
30 -5 6 4 52 6 103 6 105 -1 154 16 175 61 10 22 10 33 -1 60 -8 18 -20 38
-28 44 -19 15 -275 24 -289 10z"/>
<path d="M2026 4962 c-10 -17 -9 -183 1 -193 7 -7 56 -11 134 -10 99 2 132 6
168 22 54 24 61 33 61 80 0 30 -7 43 -40 73 l-40 36 -139 0 c-77 0 -142 -4
-145 -8z"/>
<path d="M1956 4258 c-22 -31 -20 -76 4 -116 18 -30 24 -33 53 -27 64 12 122
28 135 38 22 18 13 58 -22 93 -31 31 -39 34 -94 34 -52 0 -63 -3 -76 -22z"/>
<path d="M3390 4136 c0 -13 -7 -40 -16 -61 -22 -54 -14 -67 43 -63 l48 3 -2
49 c-1 34 -8 55 -24 72 -29 31 -49 31 -49 0z"/>
<path d="M4065 3356 c-54 -23 -82 -67 -89 -140 -12 -106 -1 -149 50 -195 48
-45 78 -56 134 -48 53 7 84 32 120 98 37 69 42 151 11 190 -10 13 -25 38 -34
55 -25 48 -126 69 -192 40z"/>
<path d="M3545 2490 c-11 -5 -36 -11 -56 -15 -40 -6 -93 -62 -105 -111 -4 -16
-10 -34 -15 -39 -16 -22 -22 -143 -9 -192 25 -92 75 -164 127 -184 39 -15 134
-10 175 9 50 23 94 82 107 143 14 66 13 172 -2 234 -16 65 -76 130 -132 143
-22 5 -47 12 -55 15 -8 3 -24 2 -35 -3z"/>
<path d="M4348 2463 c-15 -4 -18 -16 -18 -73 0 -82 13 -99 73 -101 23 -1 45
-1 49 0 4 0 31 1 60 2 74 1 84 5 108 45 19 29 20 39 11 66 -22 64 -33 68 -155
67 -61 -1 -119 -3 -128 -6z"/>
<path d="M4087 993 c-4 -3 -7 -14 -7 -23 0 -15 5 -16 40 -7 49 14 53 37 7 37
-19 0 -37 -3 -40 -7z"/>
</g>
</svg>
