<?xml version="1.0" standalone="no"?>
<!DOCTYPE svg PUBLIC "-//W3C//DTD SVG 20010904//EN"
 "http://www.w3.org/TR/2001/REC-SVG-20010904/DTD/svg10.dtd">
<svg version="1.0" xmlns="http://www.w3.org/2000/svg"
 width="2479.000000pt" height="1752.000000pt" viewBox="0 0 2479.000000 1752.000000"
 preserveAspectRatio="xMidYMid meet">

<g transform="translate(0.000000,1752.000000) scale(0.100000,-0.100000)"
fill="#000000" stroke="none">
<path d="M4910 10003 c38 -60 260 -396 493 -748 l423 -640 144 0 145 0 477
744 c263 409 478 745 478 747 0 2 -93 4 -207 4 l-208 0 -330 -531 c-181 -292
-332 -532 -335 -534 -3 -1 -158 238 -345 531 l-340 533 -232 0 -232 1 69 -107z"/>
<path d="M7460 9360 l0 -750 900 0 900 0 0 135 0 135 -700 0 -700 0 0 185 0
185 405 0 405 0 0 135 0 135 -405 0 -405 0 0 170 0 170 695 0 695 0 0 125 0
125 -895 0 -895 0 0 -750z"/>
<path d="M9840 9360 l0 -750 200 0 200 0 2 278 3 277 175 3 176 2 352 -280
353 -280 271 0 271 0 -126 93 c-69 50 -235 173 -371 272 -135 99 -245 183
-246 188 0 4 74 7 165 7 90 0 188 5 217 11 113 24 197 90 219 172 6 24 9 143
7 305 -3 255 -4 269 -25 309 -27 50 -73 89 -140 117 -47 21 -64 21 -875 24
l-828 3 0 -751z m1433 489 c56 -15 67 -49 67 -202 0 -139 -11 -184 -47 -198
-14 -5 -246 -9 -539 -9 l-514 0 0 203 c0 112 3 207 7 210 11 12 984 8 1026 -4z"/>
<path d="M12310 9360 l0 -750 175 0 175 0 0 505 c0 278 3 505 8 505 4 0 171
-187 371 -415 359 -409 364 -415 401 -415 38 0 44 7 417 426 l378 427 3 -517
2 -516 200 0 200 0 0 750 0 750 -197 0 -198 -1 -385 -434 c-212 -239 -388
-435 -391 -435 -4 0 -181 196 -393 435 l-387 435 -190 0 -189 0 0 -750z"/>
<path d="M15260 9360 l0 -750 900 0 900 0 0 135 0 135 -700 0 -700 0 0 185 0
185 405 0 405 0 0 135 0 135 -405 0 -405 0 0 170 0 170 695 0 695 0 0 125 0
125 -895 0 -895 0 0 -750z"/>
<path d="M17828 10091 c-109 -28 -177 -95 -198 -195 -16 -79 -9 -1048 9 -1100
19 -58 93 -131 160 -158 l56 -23 790 0 c787 0 790 0 860 22 84 26 145 75 171
135 17 38 19 78 22 371 l3 327 -535 0 -536 0 0 -125 0 -125 338 -2 337 -3 3
-167 2 -168 -645 0 -645 0 0 490 0 490 643 -2 642 -3 3 -87 c2 -66 6 -88 16
-88 8 0 91 11 186 25 95 14 174 25 177 25 3 0 4 48 2 108 -4 94 -7 112 -31
153 -31 52 -93 91 -176 108 -36 8 -295 11 -820 10 -698 0 -773 -2 -834 -18z"/>
</g>
</svg>
