<svg xmlns="http://www.w3.org/2000/svg" xmlns:xlink="http://www.w3.org/1999/xlink" version="1.1" x="0px" y="0px" viewBox="0 0 100 125" enable-background="new 0 0 100 100" xml:space="preserve"><path fill="white" d="M45.088,71.905l-7.313-5.03c0,0-0.31-3.923-0.288-3.989c0.022-0.067-2.216-2.66-2.216-2.66l0.354-0.443  c0,0-3.191-1.329-3.413-1.484c-0.222-0.156-0.576-2.416-0.598-2.683c-0.022-0.265-1.485-2.681-1.485-2.681s-0.311-0.621-0.311-0.71  c0-0.088,0.155-0.421,0.177-0.576c0.022-0.155-0.244-0.287-0.399-0.354c-0.155-0.066-0.31-0.465-0.31-0.532s0.31-2.327,0.31-2.46  s-0.31-0.465-0.31-0.465l0.288-0.333c0,0,0.354-0.376,0.421-0.487s0.488-0.797,0.554-0.797s0.687,0.288,0.775,0.332  c0.089,0.044,0.421-0.288,0.532-0.354c0.111-0.067,0.288-0.443,0.333-0.599c0.044-0.155,0.333-1.063,0.376-1.263  c0.044-0.199,0.067-0.643,0.266-0.731c0.2-0.089,2.15-1.175,2.549-1.507s0.376-0.576,0.376-0.576l0.754-0.067l0.044-0.199l0.222-0.2  c0,0,0.155-0.266,0.089-0.376s-0.177-0.377-0.177-0.377l0.598-0.864l-0.665-2.128l0.665-0.354l0.022-0.333  c0,0,0.177-0.354,0.288-0.598c0.11-0.244,0.177-0.754,0.288-1.042c0.111-0.288,1.02-1.44,1.086-1.64  c0.066-0.2-1.463-0.798-1.552-0.798c-0.088,0-0.044-1.174-0.044-1.33c0-0.155,0.487-0.554,0.621-0.665  c0.133-0.11-0.044-0.642-0.067-0.798c-0.022-0.155-0.044-1.374-0.044-1.551c0-0.177-1.13-1.019-1.13-1.019l-0.022-0.976  c0,0-0.044-1.197,0.088-1.352c0.133-0.156,0.687-1.995,0.909-2.216s-0.266-0.599-0.288-0.665c-0.022-0.066-0.266-0.443-0.133-0.488  c0.133-0.044,0.443-0.62,0.443-0.62l-0.177-0.2c0,0,0.066-0.199,0.088-0.266c0.022-0.066,0.199-0.221,0.421-0.376  c0.222-0.155-0.044-0.311-0.044-0.311s0.022-0.288,0.044-0.465c0.022-0.177,0.222-0.421,0.266-0.554  c0.044-0.133-0.51-0.222-0.731-0.244c-0.222-0.022-1.33-0.376-1.418-0.399c-0.088-0.022-0.31-0.177-0.421-0.399  s0.222-0.31,0.31-0.399c0.089-0.089,2.083-1.042,2.083-1.042s0.51-0.222,0.554-0.333c0.044-0.111-0.067-0.288,0.111-0.488  c0.177-0.199,0.199-0.465,0.088-0.665c-0.111-0.2-0.377-0.554-0.377-0.554s0.953-0.044,1.086-0.044c0.133,0,0.311-0.177,0.421-0.266  c0.111-0.088,0.864-0.443,0.864-0.443l-0.333-0.399v-1.108l0.111-0.178c0,0,0.465-0.177,0.599-0.177c0.133,0,0.82,0.199,1.042,0.111  s0.687-0.687,0.953-0.909c0.266-0.221,0.886-0.864,1.108-1.219c0.222-0.354,0.52-0.379,0.52-0.379s0.099,0,0.329-0.049  c0.231-0.049,0.33-0.099,0.396-0.181s0.461-0.494,0.659-0.642c0.197-0.148,0.247-0.083,0.362-0.05  c0.115,0.033,0.725,0.017,0.807,0.017c0.083,0,0.543-0.312,0.725-0.428c0.181-0.116,0.313-0.148,0.379-0.148  s0.412,0.033,0.757-0.016c0.346-0.05,0.296-0.132,0.33-0.198c0.033-0.066,0.379-0.148,0.576-0.28  c0.198-0.131,0.642-0.247,0.791-0.28c0.148-0.033,1.976,0,1.976,0s0.132,0.115,0.148,0.396c0.017,0.28,0.23,0.23,0.396,0.428  c0.164,0.198,0.247,0.049,0.56,0.148c0.312,0.099,0.429,0,0.593-0.115s0.527-0.214,0.561-0.148c0.032,0.066,0.247,0.28,0.443,0.412  c0.198,0.132,0.412,0.23,0.593,0.395c0.182,0.165,0.759,0.396,0.759,0.511s-0.297,0.132-0.479,0.181  c-0.181,0.049-0.461,0.099-0.51,0.165c-0.05,0.066,0.28,0.198,0.378,0.362c0.1,0.165,0.083,0.346,0.017,0.445  c-0.065,0.099-0.017,0.28-0.049,0.823s0.148,0.313,0.396,0.708s0.56,0.33,0.56,0.379s0.329,0.148,0.461,0.247s0.264,0.362,0.23,0.56  c-0.033,0.198-0.444,0.346-0.659,0.461c-0.214,0.116-0.115,0.247-0.115,0.511s0.347,0.478,0.478,0.642  c0.132,0.165,0.544,0.181,0.759,0.231c0.213,0.049,0.395,0,0.576-0.033c0.181-0.033,0.378-0.28,0.493-0.329  c0.115-0.05,0.461-0.511,0.593-0.742c0.132-0.23,0.242-0.658,0.242-0.658s0.22-0.017,0.384,0c0.164,0.016,0.561-0.247,0.889-0.247  c0.329,0,1.549-1.169,1.729-1.268s0.264-0.444,0.264-0.593c0-0.148,0.115-0.296,0.264-0.296s0.329-0.165,0.56-0.28  s0.445-0.23,0.445-0.23s0.164,0.131,0.197,0.181c0.032,0.049,0.346,0.247,0.362,0.379c0.017,0.131-0.215,0.329-0.215,0.411  c0,0.083,0.182,0.445,0.363,0.609c0.181,0.165,0.395,1.251,0.246,1.4c-0.148,0.148-0.478,0.461-0.741,0.757s-0.905,0.873-1.103,1.4  c-0.198,0.527-0.84,1.646-1.021,2.124c-0.181,0.478-0.017,0.543-0.346,0.823c-0.329,0.28-0.23,0.066-0.379,0.28  c-0.148,0.214-0.378,0-0.494,0c-0.114,0-0.396,0-0.575,0.296c-0.182,0.296-0.544,0.214-0.544,0.214s-0.313,0.066-0.494,0.082  c-0.182,0.017-0.362,0.396-0.478,0.593c-0.115,0.197-0.148,0.51-0.23,0.873s-0.215,0.691-0.215,1.268  c0,0.576,0.066,1.614,0.066,1.614s0.297,0.477,0.396,0.642c0.099,0.165,0.411,0.428,0.67,0.708c0.257,0.28,0.236,0.675,0.236,0.725  s0.279,0.494,0.526,0.791c0.246,0.296,0.478,0.263,0.725,0.444c0.246,0.181,0.296,0.017,0.296-0.082c0-0.099,0.576,0,0.576,0  s0.066,0.791,0.083,0.889c0.016,0.099,0.608,0.329,0.971,0.576s1.17,0.263,1.17,0.263s-0.017,0.741-0.017,0.824  c0,0.082,0.065,0.412,0.099,0.51s0.132,0.247,0.181,0.33c0.05,0.083,0.05,0.083-0.082,0.428s0.017,1.959,0.017,1.959l0.84,1.054  c0,0-0.065,0.214-0.165,0.396c-0.099,0.181-0.132,0.28-0.493,0.609c-0.363,0.33-0.462,0.741-0.479,0.807  c-0.017,0.066-0.081,0.84-0.081,0.84s-0.873,0.889-0.956,0.938c-0.082,0.049-0.082,0.412-0.082,0.577  c0,0.164-0.082,0.214-0.082,0.477c0,0.264,0.082,0.593-0.066,0.725c-0.148,0.132-0.708,0.296-0.822,0.461  c-0.116,0.165-0.627,0.708-0.644,0.823c-0.017,0.116-1.234,1.235-1.316,1.367c-0.083,0.131-0.362,0.247-0.434,0.576  c-0.072,0.33-0.143,0.264-0.143,0.264s-0.626,0.049-0.774,0.099s-0.494,0.247-0.593,0.33c-0.099,0.082-0.445,0.675-0.445,0.675  s-0.642,0.396-0.922,0.428c-0.279,0.033-2.132,1.309-2.239,1.449c-0.107,0.141-0.411,0.997-0.502,1.301s0,1.276,0,1.276  s-0.041,0.337,0.124,0.65c0.164,0.313,0.946,1.754,1.028,1.869s0.758,0.733,0.864,0.881c0.106,0.147,1.433,1.128,1.475,1.234  c0.041,0.107,0.419,0.165,0.593,0.271c0.173,0.107,0.51,0.1,0.584,0.017c0.074-0.082,0.165-0.024,0.379-0.017  c0.214,0.009,0.535,0.025,0.824,0.017c0.287-0.008,0.402-0.09,0.402-0.09s0.387-0.157,0.412-0.247  c0.024-0.091,0.205-0.091,0.37-0.091c0.164,0,0.107,0.1,0.115,0.346c0.009,0.247,0.025,0.881-0.049,1.021  c-0.074,0.14-0.231,0.123-0.28,0.188c-0.05,0.066-0.091,0.339-0.115,0.544c-0.025,0.206,0.099,0.23,0.255,0.42  c0.157,0.189,0.231,0.091,0.42,0.14c0.189,0.05,0.223,0.091,0.338,0.083c0.114-0.009,0.188-0.1,0.362-0.148  c0.173-0.049,0.642-0.264,0.79-0.346s0.264-0.576,0.297-0.618c0.033-0.041-0.033-0.197-0.058-0.223  c-0.025-0.023-0.14-0.188-0.156-0.229c-0.017-0.042,0.073-0.115,0.14-0.156c0.065-0.042,0.071-0.201,0.071-0.201  c0.066-0.065,0.483-0.109,0.637-0.176c0.154-0.065,0.176,0.022,0.286,0.11c0.108,0.088,0.329,0.395,0.482,0.68  c0.154,0.286,0.438,0.374,0.438,0.374l-0.044,2.218c0,0,0.198,0,0.33,0s0.263,0.088,0.373,0.264  c0.109,0.175,0.285,0.241,0.352,0.351c0.065,0.11,0.021,0.132-0.044,0.132c-0.066,0-0.9-0.044-1.187,0  c-0.285,0.044-0.131,0.198-0.153,0.264c-0.021,0.065-0.021,0.285-0.021,0.285h0.526c0,0,0.483,0.483,0.593,0.571  c0.11,0.088,0.505,0.065,0.681,0.153s0.593,0.132,0.593,0.132s0.856,0.044,0.988,0.021c0.132-0.021,0.615-0.153,0.615-0.153  s0.483,0.264,0.658,0.483c0.176,0.22,0.526,0.438,0.438,0.505c-0.087,0.065-0.175,0.285-0.285,0.461  c-0.109,0.176-0.197,0.417-0.197,0.526c0,0.11-0.263,0.901-0.263,0.901l-0.088,4.039c0,0,0.833,1.032,0.9,1.186  c0.064,0.153,0.108,0.395,0.108,0.944c0,0.549-0.482,0.461-0.856,0.725c-0.372,0.263-6.037,3.096-6.257,3.249  c-0.219,0.154-0.526,0.418-0.526,0.418L62.7,72.782c0,0-0.879,0.153-1.164,0.175c-0.285,0.022-0.637,0.55-0.637,0.55v0.725  c0,0-0.835,1.383-0.943,1.625c-0.11,0.241-2.262,0.416-2.262,0.416s-1.735,2.613-1.779,2.768c-0.044,0.153,0.176,0.614,0.308,0.943  s1.296,3.623,1.296,3.623s-0.176,0.482-0.242,0.526c-0.065,0.044,0.088,0.594,0.088,0.594s0.11,0.636,0.132,0.769  c0.022,0.131,0.198,0.438,0.198,0.614s-0.088,0.153-0.242,0.285c-0.153,0.132-0.153,0.396-0.373,1.12s-0.856,1.646-1.933,3.052  c-1.075,1.404-1.559,1.91-2.48,2.283c-0.483,0.22-2.525,0.9-2.525,0.9L45.088,71.905z M62.458,52.319  c0.109,0.12,0.153-0.143,0.209-0.197c0.054-0.056,0.153-0.133,0.263-0.154c0.11-0.022,0.22-0.032,0.253,0.011  c0.033,0.044,0.121,0.527,0.121,0.802s0.098,0.23,0.154,0.23c0.055,0,0.152-0.253,0.219-0.318c0.067-0.066,0.373-0.241,0.373-0.241  s0.176-0.264,0.329-0.45c0.154-0.187,0.242-0.329,0.33-0.438c0.088-0.11,0.318-0.242,0.549-0.483  c0.23-0.242-0.044-0.143-0.165-0.242c-0.121-0.099-0.23-0.263-0.351-0.329c-0.121-0.066-0.363-0.264-0.495-0.286  c-0.131-0.022-0.351-0.088-0.461-0.099c-0.109-0.011-0.308-0.11-0.438-0.154c-0.132-0.043-0.867-0.011-1.131,0  c-0.264,0.011-0.087,0.275-0.1,0.593c-0.011,0.319-0.108,1.504-0.108,1.504S62.348,52.198,62.458,52.319z M64.703,40.545  c0.022,0.044,0.11,0.099,0.143,0.209s0.165,0.187,0.165,0.187s0.055-0.099,0.055-0.143s0.231-0.132,0.275-0.165  c0.044-0.033,0.187-0.209,0.187-0.259s-0.23-0.026-0.297-0.02s-0.121-0.006-0.264,0.016s-0.33-0.044-0.362,0  C64.604,40.369,64.681,40.501,64.703,40.545z M66.089,39.984c0,0,0.175,0.231,0.229,0.242c0.056,0.011,0.319-0.066,0.374-0.121  c0.056-0.055,0.188-0.132,0.253-0.176c0.066-0.044,0.308-0.23,0.385-0.308s0.066-0.154,0.077-0.286  c0.011-0.132-0.044-0.297-0.044-0.297s-0.154,0.033-0.208,0.077c-0.057,0.044-0.21,0.208-0.254,0.208s-0.264,0.121-0.264,0.121  s0.012,0.177-0.044,0.188c-0.055,0.01-0.274,0.109-0.274,0.109l-0.109,0.088C66.21,39.831,66.037,39.92,66.089,39.984z"/></svg>