<svg xmlns="http://www.w3.org/2000/svg" xmlns:xlink="http://www.w3.org/1999/xlink" version="1.1" x="0px" y="0px" viewBox="0 0 30 37.5" xml:space="preserve"><g transform="translate(-479 -1340)"><g xmlns="http://www.w3.org/2000/svg" xmlns:xlink="http://www.w3.org/1999/xlink"><path d="M499,1356v-2h-1v1h-1l-1-1v-1l2-2l1-2v-2l-2-2v-1h1l2-2l-1-1l-2,1h-1v-1.188h-0.813l-0.813-0.813H492l-3,4h1v7l-3,2l1,4    l2,1v2l2,1l2,8l2-1l1-1v-1l-1-2v-1h1l4-3v-3L499,1356z M500,1359.5l-3.333,2.5H495v2.236l1,2v0.35l-0.593,0.592l-0.739,0.37    l-1.81-7.236l-1.858-0.93v-2l-2.142-1.07l-0.718-2.87l2.859-1.906V1343l1.5-2h1.461l0.813,0.813H495V1343h1v2.414l2,2v1.35    l-0.822,1.644l-2.178,2.179v1.828l1.586,1.586H498v0.618l2,1V1359.5z"/></g></g><text x="0" y="45" fill="#000000" font-size="5px" font-weight="bold" font-family="'Helvetica Neue', Helvetica, Arial-Unicode, Arial, Sans-serif">Created by Hea Poh Lin</text><text x="0" y="50" fill="#000000" font-size="5px" font-weight="bold" font-family="'Helvetica Neue', Helvetica, Arial-Unicode, Arial, Sans-serif">from the Noun Project</text></svg>