<?xml version="1.0" standalone="no"?>
<!DOCTYPE svg PUBLIC "-//W3C//DTD SVG 20010904//EN"
 "http://www.w3.org/TR/2001/REC-SVG-20010904/DTD/svg10.dtd">
<svg version="1.0" xmlns="http://www.w3.org/2000/svg"
 width="900.000000pt" height="975.000000pt" viewBox="0 0 900.000000 975.000000"
 preserveAspectRatio="xMidYMid meet">
<metadata>
Created by potrace 1.10, written by Peter Selinger 2001-2011
</metadata>
<g transform="translate(0.000000,975.000000) scale(0.100000,-0.100000)"
fill="white" stroke="none">
<path d="M4314 9415 c-36 -18 -96 -72 -207 -188 -133 -137 -279 -267 -301
-267 -4 0 -25 -12 -47 -26 -56 -35 -278 -145 -369 -182 -145 -60 -227 -83
-569 -163 -71 -16 -202 -40 -271 -48 -36 -5 -101 -13 -145 -19 -135 -19 -301
-33 -495 -42 -212 -11 -349 -30 -412 -57 -51 -23 -102 -78 -131 -142 -20 -45
-21 -62 -27 -876 -4 -456 -4 -1446 1 -2200 8 -1471 5 -1405 59 -1569 23 -69
23 -70 4 -105 -18 -32 -116 -110 -139 -111 -6 0 -45 23 -88 50 -86 57 -143 80
-197 80 -68 0 -149 -76 -172 -163 -11 -43 -10 -57 10 -135 28 -110 28 -123 -5
-180 -22 -38 -28 -59 -27 -107 0 -63 19 -110 83 -205 37 -54 38 -70 6 -135
-33 -66 -32 -116 4 -190 30 -63 57 -102 113 -164 77 -86 73 -76 73 -175 0 -84
3 -96 34 -154 39 -72 115 -162 180 -212 24 -19 60 -49 78 -66 30 -29 32 -34
26 -81 -8 -76 38 -165 138 -265 75 -74 146 -128 171 -128 29 -1 60 -43 83
-110 32 -93 54 -128 122 -190 52 -47 176 -120 205 -120 55 0 97 -27 199 -126
88 -86 120 -110 183 -139 70 -32 85 -35 208 -41 169 -8 198 -15 275 -72 76
-57 111 -69 230 -83 232 -28 425 56 545 235 58 87 86 114 146 143 68 32 136
114 127 152 -6 25 -75 100 -124 133 -19 13 -27 35 -42 111 -10 52 -30 120 -44
151 -42 96 -29 97 143 15 317 -152 313 -151 414 -157 127 -7 153 1 443 144 61
30 115 54 120 54 32 -1 34 -17 10 -93 -14 -43 -25 -94 -25 -113 0 -49 -12 -68
-102 -161 -88 -91 -91 -101 -39 -156 25 -28 106 -87 118 -87 20 0 76 -58 104
-107 67 -117 167 -199 299 -243 58 -20 80 -22 210 -18 162 5 200 16 295 86 78
58 98 64 245 69 212 7 272 32 407 169 82 83 152 134 183 134 24 0 149 67 204
108 80 62 146 152 146 202 0 41 35 94 74 111 22 9 35 17 101 61 59 38 132 113
173 177 31 49 37 66 42 136 3 44 9 86 13 92 4 7 32 29 62 48 67 45 149 133
195 211 33 55 35 63 36 159 l2 100 69 77 c38 43 89 112 114 155 54 95 57 140
15 222 -32 62 -30 78 18 148 59 86 76 128 76 189 0 45 -6 69 -30 111 -32 57
-36 85 -19 130 31 80 40 137 29 185 -15 62 -76 131 -136 154 -43 16 -47 16
-101 -2 -31 -10 -86 -39 -122 -63 -92 -62 -127 -62 -187 1 -51 55 -54 76 -25
183 47 172 70 369 76 648 1 84 3 995 4 2026 l1 1874 -24 53 c-31 68 -103 139
-169 169 -59 27 -109 32 -447 45 -219 9 -304 17 -481 46 -48 8 -100 14 -115
14 -79 0 -656 141 -796 196 -102 39 -128 49 -186 76 -34 15 -64 28 -66 28 -7
0 -158 90 -206 123 -79 54 -169 136 -324 292 -128 129 -159 155 -200 169 -65
21 -73 21 -132 -9z m126 -105 c16 -11 62 -62 103 -113 92 -114 153 -176 251
-256 151 -122 338 -226 536 -300 152 -56 262 -90 460 -142 320 -84 744 -137
1160 -146 288 -6 284 -5 355 -69 l40 -35 3 -222 c1 -122 -2 -1052 -7 -2067
-11 -1922 -13 -1988 -55 -2185 -28 -133 -188 -485 -274 -606 -106 -146 -186
-255 -192 -259 -4 -3 -26 -27 -50 -55 -47 -56 -367 -381 -427 -434 -401 -356
-806 -646 -1208 -868 -93 -52 -177 -98 -185 -103 -21 -12 -448 -223 -493 -243
-21 -9 -51 -17 -67 -17 -27 0 -44 6 -135 45 -48 21 -284 140 -355 179 -36 20
-72 39 -80 43 -19 9 -437 259 -508 304 -104 66 -268 176 -332 222 -164 118
-198 143 -240 178 -25 21 -101 84 -170 140 -154 127 -488 459 -596 594 -124
155 -229 312 -331 495 -56 100 -119 259 -164 410 -18 63 -19 127 -19 2245 0
1492 3 2192 10 2218 6 20 21 44 33 52 25 16 152 28 527 50 140 8 296 20 345
26 143 17 404 58 475 75 36 8 94 22 130 30 350 82 706 229 924 384 142 100
221 175 342 327 41 50 84 99 96 107 30 22 64 20 98 -4z m3384 -5869 c21 -22
29 -40 29 -68 0 -101 -124 -272 -210 -289 -23 -4 -36 0 -61 21 -31 26 -32 30
-32 102 0 104 13 122 150 213 41 28 79 50 85 50 6 0 24 -13 39 -29z m-6747
-38 c70 -46 108 -96 122 -160 20 -94 -29 -173 -97 -158 -79 17 -173 151 -187
267 -6 50 -5 58 15 78 29 29 76 21 147 -27z m413 -15 c34 -37 52 -88 52 -154
1 -67 -8 -88 -59 -151 -41 -52 -76 -56 -123 -17 -46 39 -63 79 -56 131 12 87
96 213 142 213 13 0 33 -10 44 -22z m5867 -10 c45 -48 83 -129 90 -190 5 -51
3 -57 -27 -92 -44 -49 -79 -68 -105 -54 -28 15 -72 67 -94 110 -17 34 -17 43
-5 108 28 146 76 186 141 118z m-6350 -340 c144 -54 263 -160 248 -220 -13
-48 -73 -98 -117 -98 -54 0 -158 75 -212 153 -31 45 -37 63 -38 106 0 85 21
96 119 59z m6841 6 c47 -33 19 -132 -62 -217 -50 -52 -139 -107 -174 -107 -48
0 -130 89 -118 128 15 45 111 125 206 169 104 49 114 51 148 27z m-6226 -51
c52 -60 66 -190 28 -261 -34 -64 -48 -76 -85 -76 -28 0 -44 8 -72 36 -35 35
-36 39 -35 107 1 60 6 78 33 123 46 75 59 88 89 88 15 0 34 -8 42 -17z m5599
-10 c48 -54 63 -94 67 -180 4 -82 4 -82 -28 -112 -62 -56 -115 -48 -151 26
-19 38 -24 64 -24 129 0 73 3 85 29 122 35 51 70 56 107 15z m-5359 -155 c8
-7 51 -53 94 -103 109 -124 293 -305 456 -447 194 -171 677 -534 779 -586 50
-26 162 -107 173 -125 9 -15 6 -22 -13 -38 -44 -36 -63 -26 -173 85 -129 130
-169 151 -278 143 -41 -3 -81 -3 -88 0 -7 3 -35 37 -62 76 -92 136 -154 186
-260 212 -113 28 -116 30 -174 129 -62 105 -115 163 -192 206 -58 34 -85 65
-103 123 -18 54 -82 145 -144 203 -51 49 -77 100 -61 125 7 13 27 11 46 -3z
m5058 -51 c0 -16 -22 -44 -65 -87 -40 -38 -75 -82 -89 -114 -13 -28 -33 -72
-44 -97 -16 -35 -35 -57 -78 -85 -111 -75 -162 -131 -211 -231 -24 -51 -52
-94 -61 -97 -9 -3 -48 -10 -86 -15 -46 -7 -81 -18 -106 -36 -51 -35 -160 -150
-194 -203 -34 -55 -56 -64 -131 -55 -46 6 -61 12 -63 26 -5 26 26 56 163 160
227 171 359 284 607 520 87 82 175 162 195 179 21 16 40 35 43 43 9 22 95 114
108 114 6 1 12 -9 12 -22z m-5127 -138 c31 -17 52 -45 89 -119 44 -87 46 -173
5 -237 -26 -40 -70 -73 -100 -73 -7 0 -23 -10 -35 -23 -20 -21 -20 -23 -4 -60
21 -46 161 -189 182 -185 12 3 16 25 21 113 7 120 14 145 54 193 38 45 73 43
128 -8 24 -22 58 -68 75 -104 27 -56 32 -77 32 -142 0 -96 -16 -130 -80 -172
-71 -46 -69 -69 14 -148 75 -72 183 -146 205 -142 20 5 18 62 -3 103 -11 21
-16 58 -16 125 1 236 112 253 269 41 96 -129 107 -265 29 -349 -70 -74 -57
-104 84 -194 99 -64 138 -78 164 -60 15 10 25 40 15 47 -5 3 -19 24 -31 47
-18 34 -23 66 -27 159 -7 147 0 187 34 200 39 15 101 -21 187 -107 102 -102
121 -138 120 -239 -1 -66 -5 -89 -27 -131 -46 -89 -37 -106 82 -157 85 -37
134 -46 146 -27 4 6 -14 61 -40 122 -54 128 -67 206 -41 255 28 55 79 55 181
-2 121 -68 235 -197 235 -265 0 -18 -12 -59 -26 -91 -46 -103 -16 -138 129
-148 72 -5 92 -10 103 -26 23 -31 -6 -45 -93 -45 -93 0 -160 -16 -174 -42 -6
-11 -8 -37 -4 -60 6 -34 3 -46 -26 -89 -46 -67 -137 -136 -219 -166 -78 -28
-334 -6 -398 34 -67 43 -60 69 47 173 83 81 186 160 210 160 6 0 15 9 21 21 9
17 8 25 -7 41 -24 27 -79 54 -124 61 -37 5 -88 28 -289 125 -176 86 -242 128
-477 304 -292 219 -484 412 -709 713 -143 192 -147 202 -94 262 25 28 30 43
30 82 0 66 36 156 81 203 40 42 41 43 72 27z m5230 -13 c39 -36 72 -111 92
-208 13 -63 24 -93 41 -109 33 -31 30 -46 -17 -119 -130 -201 -366 -474 -559
-646 -119 -105 -439 -354 -456 -354 -3 0 -20 -11 -37 -24 -65 -48 -477 -246
-512 -246 -14 0 -47 -11 -74 -25 -76 -38 -77 -68 -5 -110 63 -37 177 -134 224
-191 58 -70 54 -103 -15 -133 -62 -28 -177 -44 -281 -40 -116 5 -194 41 -277
128 l-57 60 0 71 0 71 -37 16 c-22 9 -84 20 -143 24 -58 4 -106 7 -107 8 -2 1
-3 10 -3 21 0 28 24 37 117 43 127 8 171 52 128 127 -8 14 -14 52 -15 88 0 79
24 124 113 209 100 96 211 142 262 109 54 -35 48 -141 -14 -280 -17 -38 -32
-83 -34 -100 -2 -27 1 -31 27 -34 29 -4 166 49 199 76 25 22 21 72 -13 133
-60 108 -32 217 88 342 81 84 138 120 184 115 51 -5 60 -33 54 -163 -5 -108
-18 -175 -41 -205 -33 -43 -28 -90 10 -90 30 0 87 26 139 62 21 16 44 28 50
28 17 0 66 49 77 77 10 28 5 41 -49 121 -34 50 -36 59 -36 126 1 58 6 80 28
121 52 94 120 168 193 211 36 22 44 23 63 12 29 -18 59 -86 67 -147 6 -54 -11
-158 -34 -203 -15 -32 -17 -64 -3 -73 18 -11 109 47 191 123 113 105 117 127
38 178 -56 35 -82 97 -77 184 6 100 80 234 146 266 30 14 35 14 57 0 13 -9 36
-32 52 -52 27 -36 28 -43 31 -161 3 -114 5 -123 23 -123 37 0 179 153 192 207
7 30 -16 59 -55 67 -62 12 -128 106 -128 182 0 48 70 194 109 227 40 33 51 34
84 3z m-5916 -21 c106 -22 176 -51 234 -96 50 -40 64 -63 80 -129 6 -25 3 -44
-8 -67 -18 -39 -58 -53 -152 -53 -112 0 -161 36 -266 196 -52 78 -59 123 -23
148 28 20 45 20 135 1z m6657 5 c38 -14 50 -45 35 -83 -23 -55 -110 -176 -156
-217 -50 -44 -110 -57 -212 -47 -71 8 -101 37 -101 100 0 54 26 95 92 148 61
48 94 64 192 89 83 21 115 24 150 10z m-6370 -479 c127 -28 181 -58 248 -138
55 -65 58 -70 58 -125 0 -51 -3 -59 -30 -82 -39 -33 -101 -49 -154 -41 -116
18 -266 134 -320 248 -34 73 -33 99 5 131 37 32 73 33 193 7z m6129 10 c62
-24 72 -71 33 -149 -55 -108 -181 -215 -289 -246 -54 -16 -63 -16 -106 -1 -54
18 -106 63 -115 101 -10 40 28 110 97 178 67 65 105 85 207 109 77 18 140 20
173 8z m-5684 -530 c112 -45 205 -127 217 -190 6 -28 2 -36 -33 -69 -79 -75
-204 -92 -308 -42 -57 27 -205 171 -225 220 -20 48 6 68 109 84 45 7 85 16 88
20 15 15 86 4 152 -23z m3714 22 c8 -7 -36 -70 -67 -95 -12 -10 -31 -18 -43
-18 -50 0 -11 65 62 103 34 18 39 19 48 10z m1686 -38 c56 -29 38 -75 -71
-182 -94 -92 -159 -126 -254 -131 -60 -3 -78 0 -120 21 -70 35 -89 60 -89 114
0 42 4 49 54 95 58 53 114 92 147 101 10 4 83 4 161 2 104 -3 150 -8 172 -20z
m-4928 -349 c47 -6 155 -57 199 -94 33 -28 35 -33 35 -95 0 -59 -3 -69 -30
-98 -49 -52 -146 -91 -240 -97 l-80 -4 -120 60 c-129 65 -195 118 -195 157 0
35 41 77 107 110 89 45 123 57 183 64 54 7 67 7 141 -3z m4350 -15 c127 -44
219 -109 219 -154 0 -42 -115 -124 -255 -183 -58 -24 -84 -29 -150 -29 -71 0
-87 4 -145 33 -120 62 -148 111 -115 198 19 50 58 84 144 125 49 25 68 28 152
29 69 0 111 -5 150 -19z m-3726 -305 c28 -13 65 -36 83 -51 28 -24 32 -33 32
-78 0 -79 -54 -145 -158 -194 -51 -24 -61 -25 -175 -21 -108 4 -132 8 -207 38
-79 31 -150 82 -150 108 0 20 96 115 130 129 19 8 49 26 67 39 17 13 38 24 45
24 8 0 23 6 34 14 30 21 60 25 158 20 65 -4 104 -11 141 -28z m3260 -30 c116
-59 185 -120 185 -164 0 -73 -141 -139 -320 -149 -91 -5 -114 -2 -169 16 -71
25 -162 88 -179 126 -48 106 42 211 193 225 129 11 182 2 290 -54z"/>
<path d="M4225 8280 c-223 -224 -372 -318 -657 -413 -158 -53 -216 -69 -323
-92 -44 -10 -91 -21 -105 -26 -14 -5 -79 -16 -145 -24 -66 -9 -159 -22 -208
-30 -48 -8 -122 -15 -165 -15 -42 0 -115 -5 -162 -10 -47 -5 -134 -12 -194
-14 -79 -3 -113 -9 -124 -20 -9 -9 -19 -47 -24 -93 -12 -104 -21 -2934 -9
-3188 8 -197 22 -279 57 -347 8 -14 14 -34 14 -43 0 -24 120 -252 187 -354
230 -351 679 -760 1208 -1100 192 -124 546 -318 729 -401 75 -34 128 -25 261
42 150 76 221 113 353 189 158 90 112 61 382 237 499 326 945 749 1151 1092
43 71 145 272 170 336 48 122 58 344 66 1499 6 960 -8 2039 -28 2103 -7 20
-18 34 -32 36 -12 3 -119 12 -237 20 -350 26 -449 37 -710 77 -186 29 -389 88
-586 170 -257 108 -334 158 -514 337 -79 79 -152 148 -161 153 -43 23 -63 10
-194 -121z m214 -77 c27 -21 88 -73 136 -116 116 -103 180 -143 370 -238 296
-146 569 -215 1110 -279 50 -6 144 -15 210 -21 186 -15 244 -29 269 -62 l21
-28 0 -1582 c0 -1461 -1 -1589 -17 -1670 -27 -137 -44 -185 -112 -323 -166
-336 -363 -561 -821 -938 -132 -108 -661 -466 -690 -466 -3 0 -33 -17 -67 -38
-65 -39 -174 -97 -312 -165 -74 -37 -83 -39 -155 -35 -66 3 -88 10 -171 50
-52 26 -131 67 -175 93 -44 25 -93 52 -110 61 -16 8 -37 19 -45 24 -8 5 -69
42 -135 81 -148 88 -335 213 -439 293 -43 34 -88 68 -100 76 -11 8 -65 53
-119 100 -54 47 -117 101 -139 120 -163 139 -372 376 -497 564 -49 74 -145
278 -182 386 l-32 95 -5 1195 c-2 657 -1 1392 3 1633 7 424 8 439 29 469 27
40 79 58 181 64 86 5 274 25 475 50 241 31 588 110 720 165 306 127 417 191
565 330 76 71 169 149 178 149 5 0 30 -17 56 -37z"/>
<path d="M3030 7170 c-118 -4 -216 -7 -217 -8 -21 -16 41 -62 84 -62 10 0 39
-7 66 -15 26 -8 71 -22 100 -31 28 -9 68 -27 88 -40 43 -27 116 -133 153 -222
15 -34 61 -133 102 -220 42 -86 91 -191 109 -233 40 -92 70 -158 147 -318 33
-68 88 -188 123 -266 35 -78 95 -207 133 -286 39 -79 84 -178 102 -219 18 -41
47 -106 65 -145 33 -71 108 -246 230 -540 37 -88 71 -164 76 -169 5 -6 9 -17
9 -26 0 -26 43 -60 76 -60 47 0 68 30 113 160 7 19 16 49 20 65 4 17 13 39 19
50 19 33 72 197 72 222 0 31 -30 103 -42 103 -13 0 -35 -27 -48 -57 -5 -13
-14 -23 -19 -23 -13 0 -41 29 -41 43 0 7 -32 89 -71 182 -79 189 -93 235 -84
277 13 57 82 203 98 206 16 3 34 -28 118 -213 17 -38 47 -104 67 -145 19 -41
51 -113 72 -160 21 -47 62 -137 93 -200 70 -148 98 -208 137 -300 32 -74 57
-128 131 -288 22 -45 39 -88 39 -95 0 -7 5 -18 11 -24 16 -16 24 -145 11 -169
-24 -46 -153 -79 -342 -89 -84 -5 -120 -11 -132 -22 -15 -13 -16 -19 -6 -31
11 -13 93 -14 668 -8 360 4 658 11 663 15 18 18 -24 42 -108 62 -49 11 -105
27 -123 35 -18 8 -37 14 -43 14 -5 0 -28 11 -50 25 -61 39 -129 149 -239 390
-49 106 -96 208 -156 333 -30 62 -54 115 -54 117 0 4 -46 103 -120 260 -53
113 -94 202 -157 340 -30 66 -72 156 -93 200 -124 262 -148 315 -160 351 -7
21 -34 85 -61 142 -27 56 -49 107 -49 112 0 9 -7 25 -58 140 -16 36 -46 109
-67 162 -45 115 -79 161 -118 161 -52 0 -89 -58 -133 -208 -13 -44 -28 -89
-33 -100 -51 -116 -63 -174 -48 -226 7 -23 18 -44 24 -46 6 -2 25 10 42 26 39
38 49 39 61 4 6 -16 14 -37 19 -48 5 -11 19 -45 31 -75 12 -30 40 -92 61 -138
22 -46 39 -94 39 -107 0 -14 -14 -53 -31 -87 -17 -35 -38 -78 -47 -96 -15 -32
-48 -59 -59 -48 -3 2 -26 53 -52 113 -27 59 -71 155 -98 213 -93 192 -154 324
-193 415 -21 50 -50 114 -64 142 -14 29 -26 56 -26 59 0 3 -18 41 -39 84 -22
43 -58 122 -81 176 -22 55 -45 108 -49 119 -26 61 -41 115 -41 147 0 30 6 41
38 66 53 43 127 60 282 65 132 5 194 19 187 41 -2 6 -48 14 -108 17 -154 10
-772 15 -1019 9z"/>
<path d="M5005 7171 c-123 -12 -48 -54 120 -68 140 -11 242 -60 271 -129 11
-26 12 -44 3 -86 -12 -62 -36 -148 -55 -198 -7 -19 -20 -60 -30 -90 -16 -52
-27 -85 -60 -170 -7 -19 -27 -75 -44 -125 -17 -49 -38 -105 -46 -123 -7 -18
-14 -37 -14 -43 0 -6 -6 -25 -14 -42 -7 -18 -20 -50 -29 -72 -8 -22 -36 -89
-60 -150 -64 -156 -71 -186 -52 -230 23 -57 50 -45 84 35 16 36 45 100 65 143
20 42 36 81 36 86 0 5 16 44 36 87 20 44 40 88 44 99 5 11 23 51 39 88 17 38
31 70 31 73 0 2 17 41 39 86 21 46 64 144 96 218 31 74 67 158 80 185 12 28
31 70 41 95 41 101 106 181 170 210 24 11 51 20 61 20 10 0 40 7 67 15 27 8
68 15 92 15 46 0 77 21 72 49 -2 12 -19 18 -68 22 -81 8 -893 8 -975 0z"/>
<path d="M3770 5294 c-17 -36 -30 -68 -30 -70 0 -2 -16 -39 -36 -81 -20 -43
-47 -103 -61 -133 -13 -30 -28 -62 -33 -71 -4 -8 -40 -89 -78 -180 -39 -90
-82 -188 -96 -216 -15 -29 -26 -55 -26 -58 0 -3 -14 -35 -31 -72 -17 -38 -38
-84 -46 -103 -8 -19 -18 -44 -23 -55 -45 -108 -129 -263 -156 -290 -44 -44
-105 -70 -184 -79 -79 -9 -151 -25 -167 -39 -24 -18 -15 -44 18 -51 41 -8 561
-8 857 1 265 7 295 18 125 47 -241 40 -304 60 -335 111 -29 49 -33 92 -13 175
24 99 142 461 155 474 6 6 10 19 10 31 0 12 5 26 11 32 6 6 14 26 19 44 12 48
94 269 135 364 79 180 88 222 59 263 -25 37 -43 26 -74 -44z"/>
</g>
</svg>
