<?xml version="1.0" standalone="no"?>
<!DOCTYPE svg PUBLIC "-//W3C//DTD SVG 20010904//EN"
 "http://www.w3.org/TR/2001/REC-SVG-20010904/DTD/svg10.dtd">
<svg version="1.0" xmlns="http://www.w3.org/2000/svg"
 width="300.000000pt" height="313.000000pt" viewBox="0 0 300.000000 313.000000"
 preserveAspectRatio="xMidYMid meet">
<metadata>
Created by potrace 1.10, written by Peter Selinger 2001-2011
</metadata>
<g transform="translate(0.000000,313.000000) scale(0.050000,-0.050000)"
fill="#d83431" stroke="none">
<path d="M2940 5390 c-30 -61 -42 -117 -37 -171 7 -65 2 -79 -27 -79 -51 0
-116 -71 -116 -127 0 -39 8 -45 57 -38 67 10 115 -72 93 -159 -14 -57 41 -80
142 -61 43 9 49 18 38 61 -22 87 26 169 93 159 51 -7 57 -2 57 47 0 58 -61
118 -120 118 -25 0 -30 16 -24 69 22 187 -90 318 -156 181z m92 -80 c15 -59
-5 -150 -32 -150 -27 0 -47 91 -32 150 7 28 21 50 32 50 11 0 25 -22 32 -50z"/>
<path d="M2340 5306 c0 -19 165 -496 211 -612 10 -25 26 -31 56 -22 61 18 63
24 28 63 -76 84 -60 205 27 205 46 0 48 17 7 76 -22 30 -52 44 -98 44 -60 0
-68 7 -79 66 -12 63 -152 228 -152 180z"/>
<path d="M3584 5254 c-35 -36 -69 -94 -76 -130 -12 -57 -21 -64 -79 -64 -46 0
-76 -14 -98 -44 -41 -59 -39 -76 7 -76 91 0 104 -149 17 -209 -41 -29 -41 -30
15 -51 71 -27 63 -41 191 325 114 326 116 345 23 249z"/>
<path d="M2750 4752 c-22 -34 -69 -75 -105 -92 -50 -23 -63 -39 -55 -70 6 -22
16 -60 22 -84 10 -36 0 -50 -45 -69 -31 -14 -165 -73 -297 -133 -245 -111
-364 -134 -494 -99 l-54 15 39 -88 c58 -131 96 -424 121 -942 20 -391 29 -473
65 -550 91 -199 449 -485 868 -693 l185 -92 185 92 c419 208 778 494 869 693
35 77 45 160 65 555 26 525 62 807 120 937 l39 88 -54 -15 c-130 -35 -251 -12
-475 91 -120 55 -254 115 -296 132 -65 27 -76 39 -65 77 6 25 16 63 22 85 8
31 -5 47 -54 70 -36 17 -84 58 -107 92 l-40 61 -56 -41 c-76 -57 -229 -57
-306 0 l-57 42 -40 -62z m459 -352 c86 -22 287 -97 448 -168 161 -70 327 -134
368 -141 83 -14 83 -17 56 -172 -26 -145 -57 -522 -72 -879 -15 -346 -27 -380
-208 -561 -180 -180 -694 -499 -803 -499 -109 0 -684 365 -835 530 -148 162
-158 196 -173 560 -13 301 -54 771 -82 933 l-13 73 99 21 c54 11 206 69 337
129 474 214 614 242 878 174z"/>
<path d="M2806 4231 c-113 -32 -263 -93 -466 -189 -87 -42 -161 -62 -222 -62
l-93 0 27 -115 c30 -127 62 -474 75 -818 15 -372 164 -547 703 -827 l160 -82
80 33 c143 59 479 268 572 357 212 200 228 247 246 755 11 277 54 632 84 680
6 9 -32 17 -84 17 -69 0 -147 24 -296 93 -387 177 -579 216 -786 158z m463
-406 c8 -19 50 -129 94 -245 43 -115 91 -237 105 -270 15 -33 51 -125 81 -205
42 -111 64 -145 93 -145 21 0 38 -9 38 -20 0 -12 -87 -20 -220 -20 -133 0
-220 8 -220 20 0 11 23 20 51 20 57 0 56 23 -4 155 -28 63 -33 65 -148 65 -66
0 -119 9 -119 20 0 11 50 20 110 20 61 0 110 6 110 13 0 6 -23 75 -50 151 -55
152 -52 176 21 176 39 0 49 10 49 50 0 42 -9 50 -60 50 -69 0 -72 10 -28 120
34 85 75 103 97 45z m-529 -204 c0 -10 -21 -21 -48 -25 -48 -6 -48 -6 65 -281
62 -151 118 -275 123 -274 16 0 165 444 168 499 2 40 -9 51 -53 56 -30 4 -55
15 -55 25 0 26 274 24 290 -1 7 -11 -5 -20 -26 -20 -61 0 -93 -55 -183 -310
-249 -706 -225 -683 -362 -343 -53 131 -109 266 -125 300 -15 35 -54 128 -86
208 -41 102 -68 145 -93 145 -19 0 -35 9 -35 20 0 12 83 20 210 20 117 0 210
-8 210 -19z m300 -681 c0 -11 -28 -20 -61 -20 -36 0 -56 8 -49 20 7 11 34 20
61 20 27 0 49 -9 49 -20z"/>
<path d="M1420 3495 c-43 -70 -51 -147 -20 -195 34 -55 85 25 96 149 10 129
-16 145 -76 46z"/>
<path d="M4500 3479 c0 -82 46 -199 78 -199 53 0 54 130 2 215 -53 87 -80 82
-80 -16z"/>
<path d="M1260 3312 c0 -68 44 -174 87 -209 44 -37 47 72 4 154 -47 93 -91
119 -91 55z"/>
<path d="M4698 3327 c-51 -58 -78 -120 -79 -181 -1 -55 -1 -55 -40 19 -22 41
-62 89 -90 107 -105 69 -86 -28 28 -139 l76 -74 52 41 c57 44 102 154 91 222
-6 41 -7 42 -38 5z"/>
<path d="M1530 3280 c-61 -23 -108 -85 -123 -161 l-13 -69 65 60 c107 99 149
200 71 170z"/>
<path d="M1220 3074 c0 -48 54 -175 94 -218 74 -83 197 5 237 169 29 118 -108
-13 -141 -135 l-16 -60 -15 68 c-17 78 -159 235 -159 176z"/>
<path d="M4706 3036 c-34 -36 -71 -97 -81 -136 -18 -68 -19 -68 -33 -20 -39
134 -174 273 -144 147 61 -248 236 -268 312 -36 35 104 17 118 -54 45z"/>
<path d="M1549 2845 c-69 -48 -129 -265 -73 -265 23 0 79 122 95 208 14 76 12
81 -22 57z"/>
<path d="M4429 2788 c16 -86 72 -208 95 -208 29 0 17 143 -18 201 -54 91 -93
95 -77 7z"/>
<path d="M1230 2775 c26 -89 171 -241 201 -211 24 24 -50 153 -116 203 -84 65
-102 66 -85 8z"/>
<path d="M4683 2766 c-66 -51 -137 -178 -114 -202 30 -30 175 122 201 211 17
59 -5 57 -87 -9z"/>
<path d="M1576 2605 c-50 -56 -61 -120 -35 -199 31 -94 67 -54 88 97 15 115
-6 156 -53 102z"/>
<path d="M4371 2621 c-19 -30 10 -215 39 -255 46 -62 84 109 42 189 -37 72
-64 94 -81 66z"/>
<path d="M1294 2478 c54 -94 246 -208 246 -147 0 60 -174 209 -244 209 -37 0
-37 -2 -2 -62z"/>
<path d="M4584 2481 c-112 -81 -156 -161 -89 -161 54 0 170 87 211 158 50 85
-6 87 -122 3z"/>
<path d="M1660 2389 c-30 -78 -24 -127 21 -191 78 -109 99 -55 57 141 -24 112
-49 128 -78 50z"/>
<path d="M4262 2339 c-40 -184 -18 -241 56 -146 46 57 53 117 22 196 -29 78
-54 62 -78 -50z"/>
<path d="M1808 2228 c-16 -86 28 -194 94 -229 55 -30 43 94 -23 223 -49 96
-54 96 -71 6z"/>
<path d="M4124 2227 c-68 -131 -82 -258 -27 -229 82 44 123 174 85 272 -14 35
-21 30 -58 -43z"/>
<path d="M1408 2236 c40 -62 171 -136 240 -136 122 0 -40 142 -196 171 l-76
14 32 -49z"/>
<path d="M4470 2250 c-44 -16 -100 -54 -125 -84 l-45 -56 51 -6 c60 -8 219 79
249 137 26 48 -11 51 -130 9z"/>
<path d="M1980 2099 c0 -76 46 -167 104 -208 102 -71 103 2 2 156 -85 128
-106 139 -106 52z"/>
<path d="M3967 2117 c-95 -104 -160 -257 -110 -257 73 0 171 154 160 250 l-7
54 -43 -47z"/>
<path d="M2190 1980 c15 -111 52 -170 132 -211 124 -64 99 45 -43 195 l-102
106 13 -90z"/>
<path d="M3712 1958 c-135 -150 -153 -251 -34 -189 79 41 116 99 134 206 17
108 11 107 -100 -17z"/>
<path d="M1520 2031 c0 -21 176 -109 243 -121 107 -20 160 14 93 58 -85 55
-336 102 -336 63z"/>
<path d="M4235 2011 c-161 -57 -160 -131 2 -101 67 12 243 100 243 121 0 20
-174 6 -245 -20z"/>
<path d="M2408 1875 c23 -116 232 -346 232 -255 0 50 -61 161 -130 238 -91
100 -120 105 -102 17z"/>
<path d="M3490 1858 c-69 -77 -130 -188 -130 -238 0 -91 209 139 232 255 18
88 -11 83 -102 -17z"/>
<path d="M2049 1871 c21 -17 47 -31 58 -31 11 0 15 -5 9 -11 -6 -6 -42 4 -80
22 -63 30 -296 13 -296 -22 0 -49 314 -95 370 -54 41 30 28 65 -35 96 -58 27
-61 27 -26 0z"/>
<path d="M3920 1871 c-52 -29 -66 -71 -31 -96 58 -41 371 5 371 54 0 35 -233
52 -296 22 -38 -18 -74 -28 -80 -22 -6 6 -2 11 9 11 11 0 37 13 58 29 49 37
34 38 -31 2z"/>
<path d="M2640 1809 c0 -122 139 -329 220 -329 63 0 -37 196 -157 309 -55 51
-63 54 -63 20z"/>
<path d="M3267 1755 c-120 -130 -187 -275 -127 -275 48 0 181 148 201 224 37
137 17 151 -74 51z"/>
<path d="M2180 1799 c17 -11 175 -103 353 -205 465 -265 432 -230 305 -325
-58 -43 -124 -110 -146 -147 -37 -65 -31 -62 122 55 89 68 173 123 186 123 13
0 97 -55 186 -123 153 -117 159 -120 122 -55 -22 37 -88 104 -146 147 -127 95
-160 60 305 325 178 102 337 194 353 205 57 40 -470 -224 -645 -323 l-175 -99
-175 99 c-175 99 -702 363 -645 323z"/>
<path d="M2070 1710 c-44 -16 -83 -30 -86 -30 -4 0 -1 -8 5 -19 30 -48 371
-48 371 1 0 52 -192 83 -290 48z"/>
<path d="M3721 1713 c-38 -14 -72 -36 -76 -48 -17 -51 334 -55 366 -4 29 47
-195 87 -290 52z"/>
<path d="M2260 1582 l-70 -39 56 -21 c141 -54 396 -14 303 47 -82 54 -205 59
-289 13z"/>
<path d="M3490 1589 c-96 -50 -100 -65 -22 -80 96 -18 287 -2 315 26 60 60
-193 106 -293 54z"/>
<path d="M2480 1449 c-119 -54 153 -119 308 -74 l58 17 -58 37 c-76 50 -220
60 -308 20z"/>
<path d="M3250 1449 c-97 -51 -99 -64 -10 -79 92 -16 274 1 320 30 89 55 -208
101 -310 49z"/>
</g>
</svg>
